<svg width="64" height="64" viewBox="0 0 64 64" fill="none" xmlns="http://www.w3.org/2000/svg">
    <rect width="64" height="64" rx="16" fill="#FF5830"/>
    <path fill-rule="evenodd" clip-rule="evenodd" d="M47 27.983C47 26.9351 46.5718 25.9309 45.8109 25.1882L36.5627 16.1695C35.795 15.4215 34.7505 15 33.6609 15H21.0909C18.8314 15 17 16.7747 17 18.9643V48.0357C17 49.0876 17.4309 50.0958 18.1986 50.8385C18.965 51.5824 20.0055 52 21.0909 52H42.9091C43.9945 52 45.035 51.5824 45.8014 50.8385C46.5691 50.0958 47 49.0876 47 48.0357V27.983ZM28.8582 43.3645C27.6309 41.7285 25.6373 39.0698 25.6373 39.0698C25.1955 38.4791 24.3418 38.3483 23.7323 38.7765C23.1241 39.2059 22.9891 40.0331 23.4309 40.6225L26.6518 44.9185C27.1209 45.5435 27.8491 45.9386 28.6441 45.9994C29.4391 46.0602 30.2218 45.78 30.7864 45.233C33.575 42.5306 40.5664 35.7557 40.5664 35.7557C41.0982 35.2403 41.0982 34.4025 40.5664 33.8872C40.0345 33.3718 39.17 33.3718 38.6382 33.8872L28.8582 43.3645ZM34.7955 25.5714H42.3582L34.7955 18.1965V25.5714Z" fill="white"/>
</svg>
