<svg width="64" height="64" viewBox="0 0 64 64" fill="none" xmlns="http://www.w3.org/2000/svg">
    <rect width="64" height="64" rx="16" fill="#FF5830"/>
    <path d="M13.6404 43.1379C12.1816 43.1379 11 41.9652 11 40.5172V39.2069C11 37.759 12.1816 36.5862 13.6404 36.5862H29.5515C31.0103 36.5862 32.1919 37.759 32.1919 39.2069V40.5172C32.1919 41.9652 31.0103 43.1379 29.5515 43.1379H13.6404ZM16.2808 35.2759H32.1919C33.6507 35.2759 34.8323 34.1031 34.8323 32.6552V31.3448C34.8323 29.8969 33.6507 28.7241 32.1919 28.7241H16.2808C14.822 28.7241 13.6404 29.8969 13.6404 31.3448V32.6552C13.6404 34.1031 14.822 35.2759 16.2808 35.2759ZM32.1919 44.4483H16.2808C14.822 44.4483 13.6404 45.621 13.6404 47.069V48.3793C13.6404 49.8272 14.822 51 16.2808 51H32.1919C33.6507 51 34.8323 49.8272 34.8323 48.3793V47.069C34.8323 45.621 33.6507 44.4483 32.1919 44.4483ZM28.197 22.1724H41.399V19.5517H28.197V22.1724ZM48 16.931V47.069C48 49.231 46.2177 51 44.0394 51H36.7373C37.1915 50.2256 37.4714 49.3385 37.4714 48.3793V47.069C37.4714 46.4295 37.3433 45.8215 37.1308 45.2541C37.313 45.0301 37.4371 44.7562 37.4371 44.4483C37.4371 43.7276 36.843 43.1379 36.1169 43.1379H35.6759C35.3208 42.8274 34.9247 42.5614 34.4956 42.3543C34.7122 41.7817 34.831 41.1632 34.831 40.5172H36.1182C36.8443 40.5172 37.4384 39.9276 37.4384 39.2069C37.4384 38.4862 36.8443 37.8966 36.1182 37.8966H34.6435C34.5973 37.7197 34.5603 37.5388 34.497 37.3698C35.5439 36.864 36.3901 36.0188 36.9116 34.985C37.2245 34.7452 37.4397 34.3861 37.4397 33.9655C37.4397 33.8463 37.4014 33.7388 37.371 33.6288C37.4318 33.3117 37.474 32.9893 37.474 32.6552V31.3448C37.474 30.7067 37.342 30.1013 37.1308 29.5352C37.3156 29.3099 37.441 29.0347 37.441 28.7241C37.441 28.0034 36.8469 27.4138 36.1208 27.4138H35.6495C34.7214 26.6079 33.5213 26.1034 32.1932 26.1034H21.5959V16.931C21.5959 14.769 23.3782 13 25.5566 13H44.0394C46.2177 13 48 14.769 48 16.931ZM44.0394 44.4483C44.0394 43.7276 43.4453 43.1379 42.7192 43.1379H40.0788C39.3527 43.1379 38.7586 43.7276 38.7586 44.4483C38.7586 45.169 39.3527 45.7586 40.0788 45.7586H42.7192C43.4453 45.7586 44.0394 45.169 44.0394 44.4483ZM44.0394 39.2069C44.0394 38.4862 43.4453 37.8966 42.7192 37.8966H40.0788C39.3527 37.8966 38.7586 38.4862 38.7586 39.2069C38.7586 39.9276 39.3527 40.5172 40.0788 40.5172H42.7192C43.4453 40.5172 44.0394 39.9276 44.0394 39.2069ZM44.0394 33.9655C44.0394 33.2448 43.4453 32.6552 42.7192 32.6552H40.0788C39.3527 32.6552 38.7586 33.2448 38.7586 33.9655C38.7586 34.6862 39.3527 35.2759 40.0788 35.2759H42.7192C43.4453 35.2759 44.0394 34.6862 44.0394 33.9655ZM44.0394 28.7241C44.0394 28.0034 43.4453 27.4138 42.7192 27.4138H40.0788C39.3527 27.4138 38.7586 28.0034 38.7586 28.7241C38.7586 29.4448 39.3527 30.0345 40.0788 30.0345H42.7192C43.4453 30.0345 44.0394 29.4448 44.0394 28.7241ZM44.0394 19.5517C44.0394 18.1103 42.8512 16.931 41.399 16.931H28.197C26.7447 16.931 25.5566 18.1103 25.5566 19.5517V22.1724C25.5566 23.6138 26.7447 24.7931 28.197 24.7931H41.399C42.8512 24.7931 44.0394 23.6138 44.0394 22.1724V19.5517Z" fill="white"/>
</svg>
