<svg width="64" height="64" viewBox="0 0 64 64" fill="none" xmlns="http://www.w3.org/2000/svg">
    <rect width="64" height="64" rx="16" fill="#FF5830"/>
    <path d="M48.5 16.9945C40.16 16.9945 33.005 11.3832 32.93 11.3232C32.6652 11.1139 32.3375 11 32 11C31.6625 11 31.3348 11.1139 31.07 11.3232C30.995 11.3832 23.87 16.9945 15.5 16.9945C15.1022 16.9945 14.7206 17.1526 14.4393 17.434C14.158 17.7153 14 18.097 14 18.4949V31.9981C14 42.0655 18.065 47.0017 31.385 52.8681C31.5784 52.955 31.788 53 32 53C32.212 53 32.4216 52.955 32.615 52.8681C45.935 47.0017 50 42.0655 50 31.9981V18.4949C50 18.097 49.842 17.7153 49.5607 17.434C49.2794 17.1526 48.8978 16.9945 48.5 16.9945ZM32 44.001C29.6266 44.001 27.3065 43.297 25.3332 41.9781C23.3598 40.6592 21.8217 38.7846 20.9134 36.5914C20.0052 34.3982 19.7676 31.9848 20.2306 29.6565C20.6936 27.3281 21.8365 25.1894 23.5147 23.5108C25.1929 21.8322 27.3311 20.689 29.6589 20.2259C31.9867 19.7627 34.3995 20.0004 36.5922 20.9089C38.7849 21.8174 40.6591 23.3558 41.9776 25.3297C43.2962 27.3035 44 29.6242 44 31.9981C44 35.1815 42.7357 38.2344 40.4853 40.4854C38.2348 42.7364 35.1826 44.001 32 44.001Z" fill="white"/>
    <path d="M35.4315 27.4404L30.5015 32.3823L28.5685 30.4355C28.4288 30.2958 28.2629 30.1851 28.0804 30.1095C27.8978 30.034 27.7022 29.9951 27.5046 29.9951C27.307 29.9951 27.1114 30.034 26.9288 30.1095C26.7463 30.1851 26.5804 30.2958 26.4407 30.4355C26.301 30.5751 26.1901 30.7409 26.1145 30.9233C26.0389 31.1057 26 31.3013 26 31.4987C26 31.6962 26.0389 31.8917 26.1145 32.0741C26.1901 32.2566 26.301 32.4223 26.4407 32.562L29.4376 35.557C29.5769 35.6974 29.7427 35.8088 29.9253 35.8848C30.1079 35.9609 30.3037 36 30.5015 36C30.6993 36 30.8952 35.9609 31.0778 35.8848C31.2604 35.8088 31.4261 35.6974 31.5654 35.557L37.5593 29.5669C37.699 29.4273 37.8099 29.2615 37.8855 29.0791C37.9611 28.8967 38 28.7011 38 28.5037C38 28.3062 37.9611 28.1107 37.8855 27.9282C37.8099 27.7458 37.699 27.58 37.5593 27.4404C37.4196 27.3008 37.2537 27.19 37.0712 27.1145C36.8886 27.0389 36.693 27 36.4954 27C36.2978 27 36.1022 27.0389 35.9196 27.1145C35.7371 27.19 35.5712 27.3008 35.4315 27.4404Z" fill="white"/>
</svg>
