<svg width="64" height="64" viewBox="0 0 64 64" fill="none" xmlns="http://www.w3.org/2000/svg">
    <rect width="64" height="64" rx="16" fill="#FF5830"/>
    <path d="M47.9253 29.2998C47.3081 25.283 43.8831 22.2 39.7617 22.2C38.2113 22.2 36.7214 22.6361 35.4292 23.4496C33.4633 20.0904 29.924 18 25.9922 18C19.9183 18 14.9766 23.0244 14.9766 29.2C14.9766 29.2383 14.9766 29.2779 14.9779 29.3162C11.0743 29.9847 8 33.4451 8 37.6C8 42.232 11.7977 46 16.3535 46H46.6465C51.2023 46 55 42.232 55 37.6C55 33.4096 51.876 29.9273 47.9253 29.2998Z" fill="white"/>
</svg>
