<svg width="64" height="64" viewBox="0 0 64 64" fill="none" xmlns="http://www.w3.org/2000/svg">
    <rect width="64" height="64" rx="16" fill="#FF5830"/>
    <path fill-rule="evenodd" clip-rule="evenodd" d="M32.5923 13.01C28.8932 12.887 25.1558 13.8952 21.9291 16.0467C18.3052 18.4657 15.7725 22.038 14.606 26.0314C14.2838 25.9921 13.8981 26.0094 13.44 26.1388C11.7298 26.6236 10.4435 28.0235 9.86518 29.2564C9.11505 30.8631 8.79868 32.9881 9.1324 35.1818C9.4638 37.3686 10.3886 39.1711 11.5453 40.2902C12.7055 41.4099 14.0155 41.7739 15.3168 41.5006C17.2543 41.0875 18.2149 40.7784 17.9437 38.9753L16.6302 30.2345C16.8951 25.5039 19.3468 21.0506 23.4473 18.3121C28.936 14.6497 36.1319 14.8843 41.3672 18.899C45.0091 21.6884 47.1236 25.8679 47.3676 30.2553L46.4492 36.3696C44.4007 41.9698 39.3221 45.8488 33.4454 46.3994H29.5322C28.5224 46.3994 27.7093 47.2117 27.7093 48.2193V49.1795C27.7093 50.1877 28.5224 51 29.5322 51H34.4662C35.4754 51 36.2851 50.1877 36.2851 49.1795V48.6774C40.7165 47.5971 44.5846 44.8764 47.1033 41.0823L48.684 41.5012C49.9703 41.8346 51.2959 41.4099 52.4555 40.2908C53.6122 39.1711 54.5364 37.3691 54.8684 35.1824C55.2032 32.9886 54.8776 30.8671 54.1362 29.257C53.3918 27.6468 52.2831 26.6241 51.0032 26.2573C50.4671 26.103 49.8852 26.0464 49.3861 26.0314C48.3312 22.4204 46.1595 19.1365 43.0294 16.7388C39.9519 14.3799 36.2915 13.1314 32.5923 13.01Z" fill="white"/>
    <path fill-rule="evenodd" clip-rule="evenodd" d="M37.8571 29.1541C39.159 29.1541 40.2144 30.2111 40.2173 31.5183C40.2144 32.8222 39.159 33.882 37.8571 33.882C36.5517 33.882 35.4935 32.8222 35.4935 31.5183C35.4935 30.2116 36.5523 29.1541 37.8571 29.1541ZM31.5006 29.1541C32.8054 29.1541 33.8607 30.2111 33.8607 31.5183C33.8607 32.8222 32.8054 33.882 31.5006 33.882C30.1946 33.882 29.1393 32.8222 29.1393 31.5183C29.1393 30.2116 30.1946 29.1541 31.5006 29.1541ZM25.1464 29.1541C26.4483 29.1541 27.5065 30.2111 27.5065 31.5183C27.5065 32.8222 26.4483 33.882 25.1464 33.882C23.8416 33.882 22.7856 32.8222 22.7856 31.5183C22.7856 30.2116 23.8416 29.1541 25.1464 29.1541ZM31.5006 19C24.5783 19 19 24.4026 19 31.5183C19 34.936 20.2904 37.9565 22.3925 40.1727L21.6465 43.5215C21.4006 44.6236 22.1638 45.3648 23.1528 44.8132L26.4182 42.989C27.9701 43.6638 29.6866 44.0367 31.5006 44.0367C38.4252 44.0367 44 38.6376 44 31.5183C44 24.4026 38.4252 19 31.5006 19Z" fill="white"/>
</svg>
