<svg width="64" height="64" viewBox="0 0 64 64" fill="none" xmlns="http://www.w3.org/2000/svg">
    <rect width="64" height="64" rx="16" fill="#FF5830"/>
    <path d="M28.6111 15H16.9444C16.4287 15 15.9342 15.2049 15.5695 15.5695C15.2049 15.9342 15 16.4287 15 16.9444V28.6111C15 29.1268 15.2049 29.6214 15.5695 29.986C15.9342 30.3506 16.4287 30.5556 16.9444 30.5556H28.6111C29.1268 30.5556 29.6214 30.3506 29.986 29.986C30.3506 29.6214 30.5556 29.1268 30.5556 28.6111V16.9444C30.5556 16.4287 30.3506 15.9342 29.986 15.5695C29.6214 15.2049 29.1268 15 28.6111 15ZM48.0556 15H36.3889C35.8732 15 35.3786 15.2049 35.014 15.5695C34.6494 15.9342 34.4444 16.4287 34.4444 16.9444V28.6111C34.4444 29.1268 34.6494 29.6214 35.014 29.986C35.3786 30.3506 35.8732 30.5556 36.3889 30.5556H48.0556C48.5712 30.5556 49.0659 30.3506 49.4305 29.986C49.7951 29.6214 50 29.1268 50 28.6111V16.9444C50 16.4287 49.7951 15.9342 49.4305 15.5695C49.0659 15.2049 48.5712 15 48.0556 15ZM28.6111 34.4444H16.9444C16.4287 34.4444 15.9342 34.6494 15.5695 35.014C15.2049 35.3786 15 35.8732 15 36.3889V48.0556C15 48.5712 15.2049 49.0659 15.5695 49.4305C15.9342 49.7951 16.4287 50 16.9444 50H28.6111C29.1268 50 29.6214 49.7951 29.986 49.4305C30.3506 49.0659 30.5556 48.5712 30.5556 48.0556V36.3889C30.5556 35.8732 30.3506 35.3786 29.986 35.014C29.6214 34.6494 29.1268 34.4444 28.6111 34.4444ZM44.1667 36.3889H40.2778V40.2778H36.3889V44.1667H40.2778V48.0556H44.1667V44.1667H48.0556V40.2778H44.1667V36.3889Z" fill="white"/>
</svg>
