<svg width="212" height="150" viewBox="0 0 212 150" fill="none" xmlns="http://www.w3.org/2000/svg">
    <g clip-path="url(#clip0_407_1967)">
        <path fill-rule="evenodd" clip-rule="evenodd" d="M169.787 119.084C169.094 125.568 173.463 127.516 176.448 126.86C178.592 126.389 182.912 122.643 185.626 121.417C187.482 125.394 189.802 131.425 194.271 131.904C196.501 132.142 203.807 129.157 198.972 120.284C197.988 118.477 197.052 116.701 196.092 114.889C189.899 103.187 189.563 103.155 177.617 111.087C174.19 113.363 170.182 115.402 169.787 119.084ZM171.297 147.929C170.83 152.294 176.472 157.216 180.919 153.257C182.71 151.664 186.252 142.4 186.645 138.736C187.148 134.035 179.156 125.372 173.875 139.917C173.029 142.248 171.599 145.11 171.297 147.929ZM12.6369 164.732C18.9786 165.411 19.2773 161.128 21.5961 153.947C23.2122 148.944 23.6948 142.968 17.3372 142.288C10.3889 141.544 7.50151 157.809 8.12067 160.185C8.7097 162.455 10.0974 164.461 12.6369 164.732ZM147.445 172.147C146.18 183.971 160.913 179.685 166.145 176.26L172.804 170.26C176.157 166.141 174.833 159.721 169.458 158.928C163.465 158.045 164.24 165.825 154.364 166.508C150.947 166.745 147.891 167.979 147.445 172.147ZM44.9866 61.1089C44.6818 63.9572 46.9422 67.2876 49.247 68.1531C52.9104 69.5299 51.7908 66.2995 60.9889 67.2839C64.2247 67.6302 62.697 69.3786 67.6031 69.9037C71.7081 70.343 75.1314 64.892 73.2864 60.852C68.7821 50.99 46.0232 51.4236 44.9866 61.1089ZM100.23 130.125C97.2373 129.805 94.7444 132.631 93.6745 135.543C92.4378 138.91 91.6741 142.813 90.6437 145.824C89.5352 149.063 86.9363 151.625 86.8914 154.623C86.8124 159.999 95.5765 170.356 102.744 147.338C103.387 145.275 105.616 138.415 105.657 137.195C105.786 133.303 102.998 130.421 100.23 130.125ZM27.7106 93.6806C27.191 98.5352 33.0129 103.929 38.0467 97.8198C39.2679 96.3375 44.8701 78.301 45.1393 75.7856C45.4821 72.5827 43.2125 69.2062 39.5645 68.8158C34.5397 68.278 33.3936 73.6434 31.8651 78.4382C30.4794 82.7817 28.2165 88.9536 27.7106 93.6806ZM16.3465 130.071C16.0037 133.274 18.2741 136.652 21.9203 137.042C26.9927 137.585 28.1964 132.274 29.6093 127.402C31.0016 122.598 33.2457 117.124 33.7752 112.176C34.5005 105.399 25.3085 102.23 22.2807 110.054C21.1642 112.943 20.0877 117.083 19.3223 119.712C18.4808 122.602 16.6179 127.535 16.3465 130.071ZM57.7956 156.179C57.1148 162.541 65.1744 170.355 71.1488 170.995C77.3138 171.654 83.531 173.417 84.4565 164.769C84.7197 162.31 83.4533 160.072 81.8173 159.157C76.8812 156.396 73.2049 160.792 69.2961 154.421C64.1102 145.972 58.098 153.354 57.7956 156.179ZM145.622 87.1773C145.01 92.8977 154.092 96.5199 157.098 89.275L160.873 67.2727C160.622 61.096 153.835 58.722 150.356 63.3333C149.408 64.59 148.431 68.5535 148.077 70.3142C146.986 75.7484 146.224 81.5544 145.622 87.1773ZM132.318 55.7952C138.007 56.404 134.448 53.4737 143.949 54.4905C146.207 54.7322 149.732 59.2855 154.052 55.4155C159.148 50.8494 155.489 42.3395 145.934 41.3168L145.687 41.2904C140.471 40.7448 132.707 40.3333 129.171 44.9615C125.306 50.0212 129.279 55.4699 132.318 55.7952ZM139.235 125.376C138.759 129.819 145.988 134.749 150.176 128.181C151.145 126.662 153.861 110.681 154.336 107.799C155.774 99.0617 144.381 92.6972 141.648 108.454C140.621 114.372 139.891 119.245 139.235 125.376ZM99.2394 117.908C98.429 125.48 107.627 128.033 110.559 121.237C111.87 118.2 116.304 103.419 116.668 100.014C117.1 95.9818 114.5 94.0455 111.027 93.6738C106.024 93.1384 104.829 98.5436 103.421 103.428C102.269 107.429 99.6372 114.191 99.2394 117.908ZM139.694 169.406C148.31 170.328 145.766 157.81 145.804 156.52C145.97 150.931 152.106 138.227 142.566 137.205C139.189 136.844 137.187 139.01 136.245 142.224C135.483 144.827 134.528 150.125 134.007 152.911C133.418 156.058 133.762 160.915 134.248 163.46C134.86 166.657 136.245 169.037 139.694 169.406ZM115.61 88.4277C122.076 89.1197 123.204 79.5794 125.572 71.8006C126.062 70.1908 127.779 65.9887 127.965 64.253C128.351 60.6437 126.077 57.0402 123.026 56.7136C116.233 55.9866 114.969 65.1778 113.029 71.8467C112.068 75.1512 106.361 87.4379 115.61 88.4277ZM63.554 145.322C67.6497 145.761 70.1601 141.154 70.8221 136.549C71.724 130.286 74.531 118.988 72.0976 115.446C68.8938 110.781 63.057 112.531 61.5812 117.284L59.6241 128.327C58.7458 133.981 55.7046 144.482 63.554 145.322ZM64.8487 84.9068C64.2981 90.0518 62.4585 100.183 64.1868 103.732C66.4857 108.451 74.8931 109.164 76.0646 98.2181L77.0864 85.5003C77.0889 85.4764 80.0752 75.0633 72.311 74.2323C67.3881 73.7054 65.376 79.9807 64.8487 84.9068Z" fill="#FF8769"/>
    </g>
    <defs>
        <clipPath id="clip0_407_1967">
            <rect width="190" height="210" fill="white" transform="translate(23) rotate(6.1088)"/>
        </clipPath>
    </defs>
</svg>
