<svg width="41" height="29" viewBox="0 0 41 29" fill="none" xmlns="http://www.w3.org/2000/svg">
    <path fill-rule="evenodd" clip-rule="evenodd" d="M34.1579 15.8309C34.1579 17.2112 35.1507 17.5229 35.7827 17.3176C36.2366 17.1701 37.0865 16.2843 37.6466 15.9651C38.1413 16.7604 38.7843 17.9776 39.7647 17.9776C40.2538 17.9776 41.7687 17.1847 40.5143 15.4261C40.2589 15.0678 40.0148 14.7151 39.7647 14.3553C38.1501 12.0318 38.0765 12.0327 35.6702 13.9712C34.9797 14.5275 34.1579 15.0471 34.1579 15.8309ZM35.1546 21.868C35.1546 22.7973 36.4924 23.7061 37.3649 22.7728C37.7163 22.3971 38.2694 20.3675 38.2694 19.5874C38.2694 18.5866 36.3354 16.9432 35.5277 20.1236C35.3984 20.6332 35.1546 21.2678 35.1546 21.868ZM1.13971 28.9788C2.53064 28.9788 2.49599 28.0705 2.83219 26.507C3.06651 25.4174 3.03248 24.1489 1.63807 24.1489C0.114094 24.1489 -0.134571 27.6372 0.0548491 28.1234C0.235249 28.5879 0.582725 28.9788 1.13971 28.9788ZM30.5446 27.5027C30.5446 30.0198 33.6399 28.7859 34.695 27.9471L35.9996 26.5344C36.6312 25.5918 36.1952 24.2703 35.0111 24.2246C33.6911 24.1736 34.0396 25.7938 31.914 26.16C31.1784 26.2867 30.5446 26.6154 30.5446 27.5027ZM5.74976 6.43973C5.74976 7.04609 6.3172 7.69616 6.83708 7.82639C7.66344 8.03366 7.34569 7.37896 9.3631 7.37896C10.0728 7.37896 9.78212 7.78136 10.8582 7.78136C11.7585 7.78136 12.3743 6.55694 11.8805 5.74817C10.6749 3.77391 5.74976 4.37784 5.74976 6.43973ZM19.3308 19.7216C18.6744 19.7216 18.1994 20.3725 18.035 21.0096C17.845 21.7462 17.77 22.5848 17.6164 23.2419C17.4512 23.9485 16.9471 24.5462 17.0069 25.1784C17.1146 26.3117 19.2554 28.2941 20.2755 23.2878C20.3669 22.8393 20.6912 21.3451 20.6717 21.0875C20.6094 20.2653 19.9378 19.7216 19.3308 19.7216ZM2.75942 13.6845C2.75942 14.718 4.14707 15.7221 5.09683 14.3229C5.32725 13.9834 6.12348 10.0609 6.12348 9.52539C6.12348 8.84354 5.55296 8.18398 4.75284 8.18398C3.65076 8.18398 3.52674 9.33909 3.30657 10.3827C3.10689 11.3281 2.75942 12.6782 2.75942 13.6845ZM1.13971 21.5998C1.13971 22.2817 1.71043 22.9415 2.51014 22.9415C3.62268 22.9415 3.76044 21.7965 3.95375 20.7392C4.1442 19.6969 4.50377 18.4941 4.50377 17.4407C4.50377 15.998 2.43695 15.538 1.96197 17.2531C1.7869 17.8862 1.64955 18.7819 1.54459 19.3525C1.42917 19.9796 1.13971 21.0599 1.13971 21.5998ZM10.7337 26.1613C10.7337 27.5155 12.6628 28.9788 13.9731 28.9788C15.3253 28.9788 16.7144 29.2097 16.7144 27.3688C16.7144 26.8452 16.3878 26.4026 16.0119 26.247C14.8774 25.777 14.1822 26.7851 13.1868 25.5322C11.8662 23.8708 10.7337 25.5598 10.7337 26.1613ZM28.1772 9.6596C28.1772 10.8774 30.2307 11.4352 30.7145 9.84259L31.0224 5.12658C30.8246 3.83219 29.2977 3.48541 28.6504 4.53435C28.4741 4.8202 28.3541 5.67643 28.3183 6.05499C28.2078 7.22334 28.1772 8.46255 28.1772 9.6596ZM24.5639 3.35407C25.8117 3.35407 24.972 2.81747 27.0559 2.81747C27.5511 2.81747 28.4212 3.69643 29.268 2.78458C30.2672 1.70871 29.2762 0 27.1805 0L27.1264 0C25.9827 0.00264882 24.2894 0.0909426 23.6301 1.14473C22.9093 2.29675 23.8974 3.35407 24.5639 3.35407ZM27.6787 17.8434C27.6787 18.7892 29.3607 19.664 30.1163 18.1873C30.2912 17.8458 30.5093 14.4211 30.5454 13.8037C30.6544 11.9323 28.0362 10.8494 27.8092 14.2273C27.724 15.4961 27.6787 16.5382 27.6787 17.8434ZM18.8325 17.1725C18.8325 18.7846 20.8864 19.1146 21.3644 17.6182C21.5783 16.9494 22.1965 13.7386 22.1965 13.0137C22.1965 12.1552 21.5879 11.8062 20.8261 11.8062C19.7289 11.8062 19.5951 12.9708 19.4032 14.0306C19.2462 14.8988 18.8325 16.3812 18.8325 17.1725ZM28.8 27.1003C30.6899 27.1003 29.8478 24.5228 29.826 24.2504C29.7321 23.0704 30.768 20.2582 28.6756 20.2582C27.9349 20.2582 27.5509 20.7593 27.4214 21.4568C27.3164 22.0219 27.2324 23.1584 27.184 23.7566C27.1295 24.4323 27.3166 25.4468 27.4812 25.9715C27.6881 26.6306 28.0436 27.1003 28.8 27.1003ZM21.6982 10.5988C23.1164 10.5988 23.1395 8.56541 23.4727 6.8748C23.5415 6.52494 23.8162 5.60182 23.8162 5.23231C23.8162 4.46393 23.2396 3.75669 22.5702 3.75669C21.0805 3.75669 21.0196 5.71969 20.7537 7.16705C20.6219 7.88422 19.6697 10.5988 21.6982 10.5988ZM11.7304 23.7465C12.6288 23.7465 13.0662 22.7203 13.1029 21.7362C13.1531 20.3977 13.4996 17.9564 12.8897 17.2657C12.0867 16.356 10.8616 16.8558 10.6519 17.8895L10.4838 20.2578C10.4246 21.4676 10.0088 23.7465 11.7304 23.7465ZM10.6091 11.0012C10.6091 12.0965 10.4453 14.2703 10.9024 14.9784C11.5105 15.9199 13.3501 15.8806 13.3501 13.5503L13.2766 10.8505C13.2766 10.8454 13.6825 8.58638 11.9795 8.58638C10.8998 8.58638 10.6091 9.95251 10.6091 11.0012Z" fill="#261C75"/>
</svg>
