<svg width="34" height="34" viewBox="0 0 34 34" fill="none" xmlns="http://www.w3.org/2000/svg">
    <circle cx="17" cy="17" r="16.66" fill="#20B8E8" stroke="#20B8E8" stroke-width="0.68"/>
    <path fill-rule="evenodd" clip-rule="evenodd" d="M21.5498 11.0821C21.722 11.0094 21.9104 10.9843 22.0954 11.0095C22.2805 11.0347 22.4555 11.1091 22.6021 11.2251C22.7488 11.3412 22.8617 11.4945 22.9293 11.6692C22.9968 11.8439 23.0165 12.0336 22.9861 12.2185L21.4063 21.8332C21.2531 22.7606 20.2389 23.2925 19.3912 22.8305C18.6821 22.444 17.6289 21.8486 16.6816 21.2272C16.2079 20.9162 14.757 19.9203 14.9353 19.2116C15.0886 18.6057 17.5265 16.3287 18.9196 14.9749C19.4664 14.4431 19.2171 14.1363 18.5713 14.6255C16.9672 15.8402 14.3934 17.6873 13.5422 18.2073C12.7913 18.6658 12.3998 18.7441 11.9317 18.6658C11.0778 18.5232 10.2858 18.3024 9.63936 18.0333C8.76588 17.6699 8.80837 16.465 9.63867 16.1141L21.5498 11.0821Z" fill="white"/>
</svg>
