<svg width="46" height="46" viewBox="0 0 46 46" fill="none" xmlns="http://www.w3.org/2000/svg">
    <circle cx="23" cy="23" r="22.5" fill="#20B8E8" stroke="#20B8E8"/>
    <path fill-rule="evenodd" clip-rule="evenodd" d="M29.0319 15.1163C29.2655 15.0133 29.5212 14.9778 29.7724 15.0134C30.0236 15.0491 30.261 15.1546 30.46 15.319C30.659 15.4833 30.8124 15.7006 30.904 15.9481C30.9957 16.1956 31.0223 16.4643 30.9812 16.7262L28.8372 30.347C28.6292 31.6609 27.2528 32.4143 26.1023 31.7599C25.14 31.2124 23.7107 30.3688 22.425 29.4886C21.7822 29.048 19.8131 27.6371 20.0551 26.6332C20.263 25.7747 23.5717 22.549 25.4624 20.6312C26.2044 19.8777 25.866 19.443 24.9897 20.1361C22.8126 21.8569 19.3196 24.4737 18.1644 25.2104C17.1453 25.8599 16.6141 25.9708 15.9788 25.8599C14.8198 25.6579 13.745 25.345 12.8677 24.9638C11.6823 24.449 11.7399 22.7421 12.8668 22.245L29.0319 15.1163Z" fill="white"/>
</svg>
