<svg width="34" height="34" viewBox="0 0 34 34" fill="none" xmlns="http://www.w3.org/2000/svg">
    <circle cx="17" cy="17" r="16.66" fill="#2B9828" stroke="#2B9828" stroke-width="0.68"/>
    <path d="M16.5021 8H16.4979C11.8112 8 8 11.8122 8 16.5C8 18.3594 8.59925 20.0828 9.61819 21.4821L8.55888 24.6398L11.8261 23.5954C13.1701 24.4858 14.7734 25 16.5021 25C21.1888 25 25 21.1867 25 16.5C25 11.8133 21.1888 8 16.5021 8ZM21.4481 20.0031C21.243 20.5821 20.4291 21.0624 19.7799 21.2026C19.3358 21.2972 18.7557 21.3726 16.8028 20.563C14.3049 19.5281 12.6962 16.9898 12.5709 16.8251C12.4508 16.6604 11.5615 15.4811 11.5615 14.2613C11.5615 13.0416 12.1809 12.4476 12.4306 12.1926C12.6357 11.9833 12.9746 11.8877 13.2997 11.8877C13.4049 11.8877 13.4995 11.893 13.5845 11.8972C13.8342 11.9079 13.9596 11.9228 14.1242 12.3169C14.3293 12.811 14.8287 14.0308 14.8882 14.1561C14.9488 14.2815 15.0093 14.4515 14.9243 14.6162C14.8446 14.7862 14.7745 14.8616 14.6491 15.0061C14.5237 15.1506 14.4047 15.2611 14.2794 15.4163C14.1646 15.5512 14.035 15.6957 14.1795 15.9454C14.324 16.1897 14.8234 17.0047 15.5586 17.6592C16.5074 18.5039 17.2767 18.7738 17.5519 18.8885C17.7569 18.9735 18.0013 18.9533 18.1511 18.7939C18.3413 18.5889 18.5761 18.2489 18.8152 17.9142C18.9852 17.6741 19.1998 17.6443 19.4251 17.7293C19.6546 17.809 20.869 18.4093 21.1187 18.5336C21.3684 18.659 21.5331 18.7185 21.5936 18.8237C21.6531 18.9289 21.6531 19.4229 21.4481 20.0031Z" fill="white"/>
</svg>
