<svg width="46" height="46" viewBox="0 0 46 46" fill="none" xmlns="http://www.w3.org/2000/svg">
    <circle cx="23" cy="23" r="22.5" fill="#2B9828" stroke="#2B9828"/>
    <path d="M23.003 11H22.997C16.3805 11 11 16.382 11 23C11 25.625 11.846 28.058 13.2845 30.0335L11.789 34.4915L16.4015 33.017C18.299 34.274 20.5625 35 23.003 35C29.6195 35 35 29.6165 35 23C35 16.3835 29.6195 11 23.003 11ZM29.9855 27.9455C29.696 28.763 28.547 29.441 27.6305 29.639C27.0035 29.7725 26.1845 29.879 23.4275 28.736C19.901 27.275 17.63 23.6915 17.453 23.459C17.2835 23.2265 16.028 21.5615 16.028 19.8395C16.028 18.1175 16.9025 17.279 17.255 16.919C17.5445 16.6235 18.023 16.4885 18.482 16.4885C18.6305 16.4885 18.764 16.496 18.884 16.502C19.2365 16.517 19.4135 16.538 19.646 17.0945C19.9355 17.792 20.6405 19.514 20.7245 19.691C20.81 19.868 20.8955 20.108 20.7755 20.3405C20.663 20.5805 20.564 20.687 20.387 20.891C20.21 21.095 20.042 21.251 19.865 21.47C19.703 21.6605 19.52 21.8645 19.724 22.217C19.928 22.562 20.633 23.7125 21.671 24.6365C23.0105 25.829 24.0965 26.21 24.485 26.372C24.7745 26.492 25.1195 26.4635 25.331 26.2385C25.5995 25.949 25.931 25.469 26.2685 24.9965C26.5085 24.6575 26.8115 24.6155 27.1295 24.7355C27.4535 24.848 29.168 25.6955 29.5205 25.871C29.873 26.048 30.1055 26.132 30.191 26.2805C30.275 26.429 30.275 27.1265 29.9855 27.9455Z" fill="white"/>
</svg>
