<svg width="62" height="41" viewBox="0 0 62 41" fill="none" xmlns="http://www.w3.org/2000/svg">
    <path d="M38.7439 29.8039C38.789 29.8098 38.8345 29.8129 38.8797 29.8129C39.0307 29.8129 39.18 29.7806 39.3179 29.7186L61.0233 19.9502C61.2415 19.8522 61.4192 19.6837 61.5272 19.4725C61.6351 19.2613 61.6668 19.0202 61.617 18.7888C61.567 18.5575 61.4387 18.3499 61.2532 18.2001C61.0678 18.0503 60.8361 17.9673 60.5965 17.9646C60.4195 17.9624 42.8449 17.5934 35.0462 2.21544C34.3097 0.764204 32.4969 -0.102609 30.9303 0.268332L12.8131 4.57525C11.9386 4.78334 11.2421 5.33311 10.9031 6.0827C10.5712 6.81553 10.6176 7.66771 11.0295 8.42134C14.1764 14.1872 23.1776 27.8102 38.7439 29.8039ZM12.8255 6.93065C12.8966 6.77472 13.0714 6.65191 13.3061 6.59724L31.4239 2.29051C31.5165 2.26851 31.6115 2.25759 31.7067 2.25798C32.2889 2.25798 32.9002 2.632 33.1614 3.14674C39.2069 15.0667 50.6845 18.5811 56.691 19.6156L38.7184 27.7045C24.2977 25.6985 15.8544 12.8826 12.8815 7.43653C12.8121 7.30582 12.7448 7.1114 12.8255 6.93065ZM0 38.4701H38.3038V40.6617H0V38.4701ZM60.5861 30.9652V28.7744L38.8756 38.4701V40.6626L60.5861 30.9652Z" fill="white"/>
    <path d="M60.72 27.7822H55.0631L38.8315 35.0436L38.1241 35.0465C28.3095 35.0465 20.4044 33.4192 14.4946 31.5076L0 36.9822H38.4553L60.72 27.7822Z" fill="white"/>
    <path d="M4.354 24.7191C8.53511 27.3314 20.2309 33.4058 38.5054 33.3018L59.7999 23.2518C59.7999 23.2518 58.6522 23.2579 56.7718 23.2033L38.5748 31.411L38.2775 31.3726C27.8728 30.0366 20.4424 23.4752 15.776 17.6631L4.53598 22.6951C3.48343 23.1671 3.37665 24.1089 4.354 24.7191Z" fill="white"/>
</svg>
