<svg width="73" height="48" viewBox="0 0 73 48" fill="none" xmlns="http://www.w3.org/2000/svg">
    <path d="M45.8843 35.124C45.9377 35.1311 45.9915 35.1348 46.0451 35.1348C46.2239 35.1348 46.4007 35.0964 46.564 35.0229L72.2697 23.4398C72.5281 23.3236 72.7385 23.1238 72.8664 22.8734C72.9942 22.623 73.0318 22.337 72.9728 22.0627C72.9135 21.7884 72.7616 21.5423 72.542 21.3646C72.3223 21.187 72.048 21.0885 71.7642 21.0853C71.5546 21.0828 50.741 20.6452 41.5051 2.41046C40.6329 0.689629 38.4859 -0.338213 36.6306 0.101639L15.1745 5.20866C14.1389 5.45541 13.314 6.10731 12.9124 6.99614C12.5194 7.86511 12.5744 8.87561 13.0622 9.76924C16.7891 16.6062 27.4492 32.76 45.8843 35.124ZM15.1892 8.00161C15.2733 7.81673 15.4804 7.6711 15.7583 7.60627L37.2151 2.49948C37.3248 2.47339 37.4373 2.46044 37.5502 2.4609C38.2396 2.4609 38.9635 2.90441 39.2729 3.51477C46.4326 17.6491 60.0255 21.8164 67.1389 23.0431L45.854 32.6347C28.7757 30.256 18.7764 15.0593 15.2556 8.60147C15.1733 8.44649 15.0936 8.21595 15.1892 8.00161ZM0 45.4002H45.363V47.9989H0V45.4002ZM71.7519 36.5011V33.9033L46.0402 45.4002V48L71.7519 36.5011Z" fill="white"/>
    <path d="M72 33H65.2923L46.0452 41.682L45.2064 41.6855C33.5686 41.6855 24.195 39.7398 17.1872 37.4543L0 44H45.5992L72 33Z" fill="white"/>
    <path d="M4.80475 29.5718C9.79645 32.7453 23.7598 40.1248 45.5771 39.9984L71 27.7893C71 27.7893 69.6298 27.7968 67.3848 27.7304L45.6599 37.7014L45.305 37.6548C32.8831 36.0318 24.0122 28.0608 18.4411 21L5.02201 27.113C3.76541 27.6864 3.63792 28.8306 4.80475 29.5718Z" fill="white"/>
</svg>
