<svg width="56" height="57" viewBox="0 0 56 57" fill="none" xmlns="http://www.w3.org/2000/svg">
    <path d="M0.243955 53.9606L3.0409 56.7562C3.36618 57.0813 3.89353 57.0813 4.2184 56.7562L12.2921 48.687L12.4247 52.5294C12.4324 52.7504 12.5279 52.9597 12.6902 53.1101C12.852 53.2609 13.0675 53.3409 13.2887 53.3324L17.1989 53.1845C17.6579 53.1674 18.0161 52.7817 17.9994 52.3225L17.5567 40.2415C17.5408 39.8059 17.1911 39.4564 16.7553 39.4405L4.66931 39C4.65874 39 4.64857 39 4.638 39C4.19034 39.0004 3.82319 39.354 3.80652 39.801L3.66137 43.7116C3.65323 43.9327 3.73293 44.1477 3.88336 44.3094C4.0338 44.4712 4.24239 44.5667 4.46357 44.5744L8.31969 44.7126L0.243955 52.7838C-0.0813185 53.1089 -0.0813185 53.6359 0.243955 53.9606Z" fill="white"/>
    <path d="M43.5757 4.46982C43.568 4.24871 43.4724 4.03979 43.3106 3.8894C43.1484 3.7386 42.933 3.65894 42.7118 3.66707L38.8014 3.81339C38.342 3.83087 37.9839 4.2166 38.0006 4.67589L38.4416 16.7587C38.4579 17.1944 38.8075 17.544 39.2433 17.5598L51.327 18H51.3583C51.8058 17.9996 52.1729 17.646 52.1896 17.1989L52.3372 13.2896C52.3457 13.0688 52.2656 12.8534 52.1152 12.6912C51.9648 12.5295 51.7558 12.434 51.5347 12.4262L47.6824 12.2893L55.7561 4.217C56.0813 3.89184 56.0813 3.36507 55.7561 3.0399L52.96 0.243875C52.6348 -0.0812916 52.1075 -0.0812916 51.7823 0.243875L43.7094 8.31532L43.5757 4.46982Z" fill="white"/>
    <path d="M55.756 53.9606L52.9591 56.7562C52.6338 57.0813 52.1065 57.0813 51.7816 56.7562L43.7079 48.687L43.5753 52.5294C43.5676 52.7504 43.4721 52.9597 43.3098 53.1101C43.148 53.2609 42.9325 53.3409 42.7113 53.3324L38.8011 53.1845C38.3421 53.1674 37.9839 52.7817 38.0006 52.3225L38.4433 40.2415C38.4592 39.8059 38.8089 39.4564 39.2447 39.4405L51.3307 39C51.3413 39 51.3514 39 51.362 39C51.8097 39.0004 52.1768 39.354 52.1935 39.801L52.3386 43.7116C52.3468 43.9327 52.2671 44.1477 52.1166 44.3094C51.9662 44.4712 51.7576 44.5667 51.5364 44.5744L47.6803 44.7126L55.756 52.7838C56.0813 53.1089 56.0813 53.6359 55.756 53.9606Z" fill="white"/>
    <path d="M12.4243 4.46982C12.432 4.24871 12.5276 4.03979 12.6894 3.8894C12.8516 3.7386 13.067 3.65894 13.2882 3.66707L17.1986 3.81339C17.658 3.83087 18.0161 4.2166 17.9994 4.67589L17.5584 16.7587C17.5421 17.1944 17.1925 17.544 16.7567 17.5598L4.67304 18H4.64174C4.19415 17.9996 3.82706 17.646 3.81039 17.1989L3.66282 13.2896C3.65428 13.0688 3.73437 12.8534 3.88478 12.6912C4.0352 12.5295 4.24415 12.434 4.46531 12.4262L8.31757 12.2893L0.243917 4.217C-0.0813065 3.89184 -0.0813065 3.36507 0.243917 3.0399L3.04002 0.243875C3.36524 -0.0812916 3.89251 -0.0812916 4.21773 0.243875L12.2906 8.31532L12.4243 4.46982Z" fill="white"/>
</svg>
