<svg width="48" height="47" viewBox="0 0 48 47" fill="none" xmlns="http://www.w3.org/2000/svg">
    <path d="M1.16378 43.9987L3.50055 46.2902C3.7723 46.5567 4.21289 46.5567 4.48431 46.2902L11.2296 39.6758L11.3404 42.8255C11.3468 43.0067 11.4267 43.1782 11.5622 43.3015C11.6974 43.4251 11.8774 43.4907 12.0622 43.4837L15.3291 43.3624C15.7126 43.3484 16.0119 43.0323 15.998 42.6559L15.628 32.753C15.6148 32.3959 15.3226 32.1094 14.9585 32.0964L4.86103 31.7354C4.8522 31.7354 4.8437 31.7354 4.83487 31.7354C4.46087 31.7357 4.15412 32.0255 4.14019 32.3919L4.01892 35.5975C4.01213 35.7787 4.07871 35.9549 4.2044 36.0875C4.33008 36.2201 4.50435 36.2984 4.68914 36.3047L7.91082 36.418L1.16378 43.034C0.892022 43.3005 0.892022 43.7325 1.16378 43.9987Z" fill="white"/>
    <path d="M36.6567 4.64441C36.6503 4.46316 36.5705 4.29191 36.4353 4.16863C36.2998 4.04503 36.1198 3.97972 35.935 3.98639L32.668 4.10633C32.2842 4.12066 31.985 4.43684 31.9989 4.81333L32.3674 14.7177C32.381 15.0748 32.6731 15.3614 33.0372 15.3744L43.1327 15.7352H43.1588C43.5328 15.7349 43.8395 15.445 43.8534 15.0785L43.9767 11.874C43.9838 11.6931 43.9169 11.5165 43.7913 11.3836C43.6656 11.251 43.491 11.1727 43.3062 11.1663L40.0878 11.0541L46.8331 4.43717C47.1048 4.17063 47.1048 3.73884 46.8331 3.4723L44.497 1.18037C44.2253 0.913833 43.7848 0.913833 43.5131 1.18037L36.7685 7.79659L36.6567 4.64441Z" fill="white"/>
    <path d="M46.833 43.9987L44.4963 46.2902C44.2245 46.5567 43.7839 46.5567 43.5125 46.2902L36.7672 39.6758L36.6564 42.8255C36.65 43.0067 36.5702 43.1782 36.4346 43.3015C36.2994 43.4251 36.1194 43.4907 35.9346 43.4837L32.6677 43.3624C32.2842 43.3484 31.9849 43.0323 31.9989 42.6559L32.3688 32.753C32.382 32.3959 32.6742 32.1094 33.0383 32.0964L43.1358 31.7354C43.1446 31.7354 43.1531 31.7354 43.162 31.7354C43.536 31.7357 43.8427 32.0255 43.8566 32.3919L43.9779 35.5975C43.9847 35.7787 43.9181 35.9549 43.7924 36.0875C43.6667 36.2201 43.4925 36.2984 43.3077 36.3047L40.086 36.418L46.833 43.034C47.1048 43.3005 47.1048 43.7325 46.833 43.9987Z" fill="white"/>
    <path d="M11.3401 4.64441C11.3465 4.46316 11.4264 4.29191 11.5615 4.16863C11.6971 4.04503 11.8771 3.97972 12.0618 3.98639L15.3289 4.10633C15.7126 4.12066 16.0119 4.43684 15.9979 4.81333L15.6294 14.7177C15.6158 15.0748 15.3238 15.3614 14.9597 15.3744L4.86414 15.7352H4.83798C4.46404 15.7349 4.15734 15.445 4.14342 15.0785L4.02013 11.874C4.01299 11.6931 4.0799 11.5165 4.20557 11.3836C4.33124 11.251 4.50582 11.1727 4.69058 11.1663L7.90903 11.0541L1.16374 4.43717C0.892023 4.17063 0.892023 3.73884 1.16374 3.4723L3.4998 1.18037C3.77151 0.913833 4.21202 0.913833 4.48374 1.18037L11.2284 7.79659L11.3401 4.64441Z" fill="white"/>
</svg>
