<svg width="55" height="54" viewBox="0 0 55 54" fill="none" xmlns="http://www.w3.org/2000/svg">
    <path d="M50.5 39C51.8807 39 53 37.8807 53 36.5C53 35.1193 51.8807 34 50.5 34C49.1193 34 48 35.1193 48 36.5C48 37.8807 49.1193 39 50.5 39Z" fill="white"/>
    <path d="M45.5 47C46.8807 47 48 45.8807 48 44.5C48 43.1193 46.8807 42 45.5 42C44.1193 42 43 43.1193 43 44.5C43 45.8807 44.1193 47 45.5 47Z" fill="white"/>
    <path d="M52.5 30C53.8807 30 55 28.8807 55 27.5C55 26.1193 53.8807 25 52.5 25C51.1193 25 50 26.1193 50 27.5C50 28.8807 51.1193 30 52.5 30Z" fill="white"/>
    <path d="M37.5 52C38.8807 52 40 50.8807 40 49.5C40 48.1193 38.8807 47 37.5 47C36.1193 47 35 48.1193 35 49.5C35 50.8807 36.1193 52 37.5 52Z" fill="white"/>
    <path d="M27.5009 49.0909C23.9004 49.0952 20.3513 48.2509 17.152 46.6291C13.9527 45.0072 11.1966 42.6552 9.11512 39.7705C7.03367 36.8858 5.68774 33.5528 5.19038 30.0515C4.69303 26.5501 5.05879 22.9827 6.25693 19.6489C7.45507 16.3152 9.45059 13.3124 12.0759 10.893C14.7011 8.47353 17.8794 6.70804 21.3438 5.74485C24.8081 4.78165 28.4573 4.64887 31.9848 5.35767C35.5122 6.06647 38.8149 7.59615 41.6153 9.81818H37.5005C36.8375 9.81818 36.2016 10.0768 35.7328 10.5371C35.264 10.9974 35.0006 11.6217 35.0006 12.2727C35.0006 12.9237 35.264 13.548 35.7328 14.0084C36.2016 14.4687 36.8375 14.7273 37.5005 14.7273H47.5001C48.1631 14.7273 48.799 14.4687 49.2678 14.0084C49.7366 13.548 50 12.9237 50 12.2727V2.45455C50 1.80356 49.7366 1.17924 49.2678 0.71892C48.799 0.258603 48.1631 0 47.5001 0C46.8371 0 46.2012 0.258603 45.7324 0.71892C45.2636 1.17924 45.0002 1.80356 45.0002 2.45455V6.21245C41.6007 3.45292 37.5747 1.53721 33.2623 0.627136C28.9499 -0.282938 24.4778 -0.160643 20.2237 0.983689C15.9696 2.12802 12.0585 4.26078 8.82064 7.20182C5.58282 10.1429 3.11343 13.8058 1.62106 17.8812C0.128677 21.9566 -0.342857 26.3249 0.246284 30.6169C0.835424 34.909 2.46793 38.9987 5.00592 42.5408C7.54391 46.0829 10.9128 48.9733 14.8281 50.9678C18.7434 52.9623 23.09 54.0023 27.5009 54C28.1639 54 28.7998 53.7414 29.2686 53.2811C29.7374 52.8208 30.0008 52.1964 30.0008 51.5455C30.0008 50.8945 29.7374 50.2701 29.2686 49.8098C28.7998 49.3495 28.1639 49.0909 27.5009 49.0909Z" fill="white"/>
    <path d="M37.2387 36.2813C37.7262 35.821 38 35.1968 38 34.5459C38 33.8951 37.7262 33.2708 37.2387 32.8105L30.2002 26.166V12.4546C30.2002 11.8036 29.9263 11.1793 29.4387 10.7189C28.9511 10.2586 28.2897 10 27.6001 10C26.9105 10 26.2492 10.2586 25.7616 10.7189C25.2739 11.1793 25 11.8036 25 12.4546V27.1822C25.0001 27.8331 25.2742 28.4573 25.7618 28.9175L33.5622 36.2813C34.0498 36.7415 34.711 37 35.4004 37C36.0899 37 36.7511 36.7415 37.2387 36.2813Z" fill="white"/>
</svg>
