<svg width="46" height="46" viewBox="0 0 46 46" fill="none" xmlns="http://www.w3.org/2000/svg">
    <path d="M42.8432 33.1205C44.0885 33.1205 45.0981 32.0908 45.0981 30.8205C45.0981 29.5503 44.0885 28.5205 42.8432 28.5205C41.5978 28.5205 40.5883 29.5503 40.5883 30.8205C40.5883 32.0908 41.5978 33.1205 42.8432 33.1205Z" fill="white"/>
    <path d="M38.3333 40.4799C39.5786 40.4799 40.5882 39.4501 40.5882 38.1799C40.5882 36.9096 39.5786 35.8799 38.3333 35.8799C37.0879 35.8799 36.0784 36.9096 36.0784 38.1799C36.0784 39.4501 37.0879 40.4799 38.3333 40.4799Z" fill="white"/>
    <path d="M43.745 25.7602C44.9904 25.7602 45.9999 24.7304 45.9999 23.4602C45.9999 22.1899 44.9904 21.1602 43.745 21.1602C42.4997 21.1602 41.4901 22.1899 41.4901 23.4602C41.4901 24.7304 42.4997 25.7602 43.745 25.7602Z" fill="white"/>
    <path d="M31.1176 45.0805C32.3629 45.0805 33.3725 44.0507 33.3725 42.7805C33.3725 41.5102 32.3629 40.4805 31.1176 40.4805C29.8722 40.4805 28.8627 41.5102 28.8627 42.7805C28.8627 44.0507 29.8722 45.0805 31.1176 45.0805Z" fill="white"/>
    <path d="M22.8204 41.8182C19.8326 41.8218 16.8876 41.1026 14.2328 39.7211C11.578 38.3395 9.29095 36.3359 7.56376 33.8786C5.83657 31.4213 4.71971 28.582 4.307 25.5994C3.8943 22.6168 4.1978 19.5779 5.19202 16.738C6.18625 13.8981 7.84214 11.3402 10.0206 9.27921C12.199 7.21819 14.8364 5.71426 17.7112 4.89376C20.5859 4.07326 23.614 3.96015 26.5411 4.56394C29.4682 5.16774 32.2088 6.47079 34.5326 8.36364H31.1181C30.5679 8.36364 30.0403 8.58393 29.6512 8.97605C29.2622 9.36817 29.0436 9.9 29.0436 10.4545C29.0436 11.0091 29.2622 11.5409 29.6512 11.933C30.0403 12.3252 30.5679 12.5455 31.1181 12.5455H39.4158C39.9659 12.5455 40.4936 12.3252 40.8826 11.933C41.2716 11.5409 41.4902 11.0091 41.4902 10.4545V2.09091C41.4902 1.53637 41.2716 1.00453 40.8826 0.612413C40.4936 0.220291 39.9659 0 39.4158 0C38.8656 0 38.338 0.220291 37.9489 0.612413C37.5599 1.00453 37.3413 1.53637 37.3413 2.09091V5.29209C34.5204 2.94138 31.1796 1.30948 27.6012 0.534227C24.0228 -0.241021 20.3118 -0.136844 16.7817 0.837958C13.2516 1.81276 10.0062 3.62955 7.3194 6.13488C4.63265 8.64021 2.58354 11.7605 1.34516 15.2321C0.106777 18.7038 -0.284504 22.4249 0.204367 26.0811C0.693238 29.7373 2.0479 33.2212 4.15393 36.2385C6.25996 39.2558 9.0555 41.718 12.3044 43.417C15.5533 45.116 19.1602 46.0019 22.8204 46C23.3705 46 23.8982 45.7797 24.2872 45.3876C24.6762 44.9955 24.8948 44.4636 24.8948 43.9091C24.8948 43.3545 24.6762 42.8227 24.2872 42.4306C23.8982 42.0385 23.3705 41.8182 22.8204 41.8182Z" fill="white"/>
    <path d="M30.9347 30.6681C31.3405 30.276 31.5685 29.7442 31.5685 29.1898C31.5685 28.6353 31.3405 28.1036 30.9347 27.7115L25.0746 22.0513V10.3712C25.0746 9.81667 24.8465 9.28483 24.4405 8.8927C24.0346 8.50057 23.4839 8.28027 22.9098 8.28027C22.3357 8.28027 21.785 8.50057 21.3791 8.8927C20.9731 9.28483 20.745 9.81667 20.745 10.3712V22.9169C20.7451 23.4714 20.9733 24.0032 21.3793 24.3952L27.8737 30.6681C28.2796 31.0601 28.8302 31.2803 29.4042 31.2803C29.9782 31.2803 30.5287 31.0601 30.9347 30.6681Z" fill="white"/>
</svg>
