<svg width="55" height="59" viewBox="0 0 55 59" fill="none" xmlns="http://www.w3.org/2000/svg">
    <path d="M53.3076 35.9013L52.0493 35.1592C47.8852 32.7024 47.875 26.3034 52.0493 23.8408L53.3076 23.0987C54.9234 22.1446 55.4781 20.0266 54.5457 18.3764L50.4493 11.1236C49.5168 9.47342 47.4432 8.90647 45.8285 9.8583L44.5747 10.5981C40.44 13.0376 34.9792 9.90209 34.9792 4.94816V3.45703C34.9792 1.55105 33.4615 0 31.5965 0H23.4026C21.5376 0 20.0199 1.55105 20.0199 3.45703V4.94816C20.0199 9.90324 14.5569 13.0376 10.4233 10.5981L9.17061 9.8583C7.55144 8.90301 5.48463 9.46881 4.54989 11.1236L0.452355 18.3764C-0.480132 20.0266 0.0757521 22.1446 1.69041 23.0987L2.94989 23.8408C7.11282 26.2976 7.12297 32.6966 2.94989 35.1592L1.69041 35.9013C0.0757521 36.8554 -0.480132 38.9734 0.452355 40.6236L4.54989 47.8764C5.48238 49.5266 7.55482 50.0947 9.17061 49.1417L10.4233 48.4019C14.5603 45.9612 20.0199 49.1048 20.0199 54.0518V55.543C20.0199 57.4489 21.5376 59 23.4026 59H31.5965C33.4615 59 34.9792 57.4489 34.9792 55.543V54.0518C34.9792 49.0979 40.4411 45.9624 44.5747 48.4019L45.8285 49.1417C47.4432 50.0947 49.5168 49.5266 50.4493 47.8764L54.5457 40.6236C55.4804 38.97 54.9268 36.8577 53.3076 35.9013ZM27.499 44.3214C19.5024 44.3214 12.9964 37.6724 12.9964 29.5C12.9964 21.3276 19.5024 14.6786 27.499 14.6786C35.4968 14.6786 42.0027 21.3276 42.0027 29.5C42.0027 37.6724 35.4968 44.3214 27.499 44.3214Z" fill="white"/>
    <path d="M26.9994 18C20.9342 18 16 23.1588 16 29.5C16 35.8412 20.9342 41 26.9994 41C33.0646 41 38 35.8412 38 29.5C38 23.1588 33.0646 18 26.9994 18ZM32.8583 28.2418L25.9968 33.5673C25.3153 34.0956 24.3617 34.0081 23.7795 33.3598L20.9186 30.1717C20.2862 29.4674 20.3197 28.3596 20.9934 27.6996C21.667 27.0384 22.7255 27.0734 23.3579 27.7777L25.1993 29.8288L30.8641 25.4327C31.6058 24.8578 32.6542 25.0199 33.2052 25.7953C33.755 26.5708 33.6 27.6669 32.8583 28.2418Z" fill="white"/>
</svg>
