<svg width="46" height="46" viewBox="0 0 46 46" fill="none" xmlns="http://www.w3.org/2000/svg">
    <path d="M44.5845 27.9908L43.5321 27.4122C40.0494 25.4968 40.041 20.5077 43.5321 18.5878L44.5845 18.0092C45.9359 17.2653 46.3999 15.6139 45.62 14.3274L42.1939 8.67262C41.414 7.38605 39.6798 6.94402 38.3293 7.68613L37.2807 8.26293C33.8225 10.1649 29.2553 7.72027 29.2553 3.85789V2.69531C29.2553 1.2093 27.986 0 26.4262 0H19.5731C18.0133 0 16.7439 1.2093 16.7439 2.69531V3.85789C16.7439 7.72117 12.1749 10.1649 8.71769 8.26293L7.66996 7.68613C6.31575 6.94133 4.58715 7.38246 3.80536 8.67262L0.378334 14.3274C-0.401565 15.6139 0.0633563 17.2653 1.4138 18.0092L2.46718 18.5878C5.9489 20.5032 5.95739 25.4923 2.46718 27.4122L1.4138 27.9908C0.0633563 28.7347 -0.401565 30.3861 0.378334 31.6726L3.80536 37.3274C4.58526 38.6139 6.31858 39.0569 7.66996 38.3139L8.71769 37.7371C12.1777 35.8342 16.7439 38.2851 16.7439 42.1421V43.3047C16.7439 44.7907 18.0133 46 19.5731 46H26.4262C27.986 46 29.2553 44.7907 29.2553 43.3047V42.1421C29.2553 38.2797 33.8235 35.8351 37.2807 37.7371L38.3293 38.3139C39.6798 39.0569 41.414 38.6139 42.1939 37.3274L45.62 31.6726C46.4018 30.3834 45.9388 28.7365 44.5845 27.9908ZM22.9992 34.5557C16.3111 34.5557 10.8697 29.3717 10.8697 23C10.8697 16.6283 16.3111 11.4443 22.9992 11.4443C29.6882 11.4443 35.1296 16.6283 35.1296 23C35.1296 29.3717 29.6882 34.5557 22.9992 34.5557Z" fill="white"/>
    <path d="M22.9995 14C18.0371 14 14 18.0373 14 23C14 27.9627 18.0371 32 22.9995 32C27.962 32 32 27.9627 32 23C32 18.0373 27.962 14 22.9995 14ZM27.7932 22.0153L22.1792 26.1831C21.6216 26.5965 20.8414 26.5281 20.365 26.0207L18.0243 23.5257C17.5069 22.9744 17.5343 22.1075 18.0855 21.591C18.6367 21.0735 19.5027 21.1009 20.0201 21.6521L21.5267 23.2574L26.1615 19.8169C26.7684 19.367 27.6262 19.4938 28.077 20.1007C28.5268 20.7076 28.4 21.5654 27.7932 22.0153Z" fill="white"/>
</svg>
