<svg width="58" height="53" viewBox="0 0 58 53" fill="none" xmlns="http://www.w3.org/2000/svg">
    <path d="M56.8406 39.862L36.5207 4.39436C33.2017 -1.46479 24.8087 -1.46479 21.5017 4.39436L1.16992 39.862C-2.14907 45.7212 1.98175 53 8.67942 53H49.2594C55.9571 53 60.1595 45.649 56.8406 39.862ZM28.9993 45.1317C27.2323 45.1317 25.7638 43.6518 25.7638 41.8712C25.7638 40.0906 27.2323 38.6108 28.9993 38.6108C30.7662 38.6108 32.2347 40.0906 32.163 41.9555C32.2466 43.6518 30.6946 45.1317 28.9993 45.1317ZM31.9482 24.0532C31.8049 26.5797 31.6497 29.0942 31.5064 31.6207C31.4348 32.4389 31.4348 33.1848 31.4348 33.9909C31.3631 35.3263 30.3245 36.361 28.9993 36.361C27.6741 36.361 26.6473 35.3985 26.5637 34.063C26.3489 30.1289 26.122 26.2669 25.9071 22.3327C25.8355 21.2981 25.7638 20.2513 25.6803 19.2167C25.6803 17.5083 26.6354 16.1006 28.1874 15.6555C29.7395 15.2825 31.2796 16.0284 31.9482 17.5083C32.175 18.0256 32.2466 18.5429 32.2466 19.1445C32.175 20.7927 32.0198 22.429 31.9482 24.0532Z" fill="white"/>
</svg>
