<svg width="50" height="47" viewBox="0 0 50 47" fill="none" xmlns="http://www.w3.org/2000/svg">
    <path d="M48.4273 34.8248L31.2606 4.04151C28.4566 -1.04378 21.366 -1.04378 18.5721 4.04151L1.39524 34.8248C-1.40873 39.9101 2.0811 46.2275 7.73948 46.2275H42.0226C47.6809 46.2275 51.2313 39.8474 48.4273 34.8248ZM24.9062 39.3984C23.4135 39.3984 22.1729 38.114 22.1729 36.5686C22.1729 35.0232 23.4135 33.7388 24.9062 33.7388C26.399 33.7388 27.6396 35.0232 27.5791 36.6417C27.6497 38.114 26.3385 39.3984 24.9062 39.3984ZM27.3975 21.1039C27.2765 23.2967 27.1454 25.4791 27.0243 27.672C26.9638 28.382 26.9638 29.0294 26.9638 29.729C26.9033 30.8881 26.0258 31.7861 24.9062 31.7861C23.7867 31.7861 22.9193 30.9508 22.8486 29.7917C22.6671 26.3771 22.4755 23.0252 22.2939 19.6107C22.2334 18.7126 22.1729 17.8042 22.1023 16.9062C22.1023 15.4234 22.9092 14.2017 24.2204 13.8153C25.5316 13.4916 26.8327 14.139 27.3975 15.4234C27.5892 15.8724 27.6497 16.3214 27.6497 16.8435C27.5892 18.2741 27.4581 19.6942 27.3975 21.1039Z" fill="white"/>
</svg>
