<svg width="47" height="47" viewBox="0 0 47 47" fill="none" xmlns="http://www.w3.org/2000/svg">
    <path d="M23.8801 0.439453C11.1979 0.439453 0.880127 10.7573 0.880127 23.4395C0.880127 36.1217 11.1979 46.4395 23.8801 46.4395C36.5623 46.4395 46.8801 36.1217 46.8801 23.4395C46.8801 10.7573 36.5623 0.439453 23.8801 0.439453ZM23.8801 42.2576C13.5036 42.2576 5.06195 33.8158 5.06195 23.4395C5.06195 13.0631 13.5036 4.62127 23.8801 4.62127C34.2566 4.62127 42.6983 13.0631 42.6983 23.4395C42.6983 33.8158 34.2565 42.2576 23.8801 42.2576Z" fill="white"/>
    <path d="M32.4575 15.2722L20.6941 27.1512L15.3027 21.7067C14.4907 20.8867 13.174 20.8866 12.3619 21.7065C11.5498 22.5266 11.5498 23.8562 12.3619 24.6763L19.2236 31.6057C19.6135 31.9995 20.1424 32.2208 20.6939 32.2209H20.6941C21.2455 32.2209 21.7744 31.9995 22.1644 31.6059L35.3983 18.2421C36.2104 17.422 36.2104 16.0925 35.3983 15.2724C34.5862 14.4523 33.2696 14.4521 32.4575 15.2722Z" fill="white"/>
</svg>
