<svg width="59" height="59" viewBox="0 0 59 59" fill="none" xmlns="http://www.w3.org/2000/svg">
    <path d="M29.5 0C13.2337 0 0 13.2337 0 29.5C0 45.7663 13.2337 59 29.5 59C45.7663 59 59 45.7663 59 29.5C59 13.2337 45.7663 0 29.5 0ZM29.5 53.6364C16.191 53.6364 5.36364 42.8088 5.36364 29.5C5.36364 16.1912 16.191 5.36364 29.5 5.36364C42.809 5.36364 53.6364 16.1912 53.6364 29.5C53.6364 42.8088 42.8088 53.6364 29.5 53.6364Z" fill="white"/>
    <path d="M40.4629 18.7703L25.4279 33.6498L18.5371 26.8301C17.4993 25.803 15.8164 25.8028 14.7785 26.8299C13.7405 27.8571 13.7405 29.5225 14.7785 30.5497L23.5485 39.2295C24.0469 39.7228 24.7229 39.9999 25.4277 40H25.4279C26.1328 40 26.8087 39.7228 27.3071 39.2297L44.2215 22.4903C45.2595 21.4631 45.2595 19.7978 44.2215 18.7705C43.1836 17.7433 41.5008 17.7431 40.4629 18.7703Z" fill="white"/>
</svg>
