<svg width="56" height="54" viewBox="0 0 56 54" fill="none" xmlns="http://www.w3.org/2000/svg">
    <path d="M0 50.3846H56V54H0V50.3846ZM8.4 19.6539C7.65739 19.6539 6.9452 19.9395 6.4201 20.4481C5.895 20.9566 5.6 21.6463 5.6 22.3654V46.7692H16.8V22.3654C16.8 21.6463 16.505 20.9566 15.9799 20.4481C15.4548 19.9395 14.7426 19.6539 14 19.6539H8.4ZM25.2 34.1154C24.4574 34.1154 23.7452 34.4011 23.2201 34.9096C22.695 35.4181 22.4 36.1078 22.4 36.8269V46.7692H33.6V36.8269C33.6 36.1078 33.305 35.4181 32.7799 34.9096C32.2548 34.4011 31.5426 34.1154 30.8 34.1154H25.2ZM42 39.5385C41.2574 39.5385 40.5452 39.8242 40.0201 40.3327C39.495 40.8412 39.2 41.5309 39.2 42.25V46.7692H50.4V42.25C50.4 41.5309 50.105 40.8412 49.5799 40.3327C49.0548 39.8242 48.3426 39.5385 47.6 39.5385H42ZM22.96 23.4139C23.5804 25.4134 24.7085 27.2304 26.2412 28.6988C27.7738 30.1672 29.6621 31.2402 31.7333 31.8196C32.9493 32.1449 34.2052 32.3091 35.4667 32.3077C38.9322 32.3077 42.2557 30.9745 44.7062 28.6015C47.1567 26.2284 48.5333 23.0099 48.5333 19.6539C48.5333 19.1744 48.3367 18.7146 47.9866 18.3756C47.6365 18.0366 47.1617 17.8462 46.6667 17.8462H40.1333C39.3907 17.8462 38.6785 17.5605 38.1534 17.052C37.6283 16.5435 37.3333 15.8538 37.3333 15.1346V8.80772C37.3333 8.32829 37.1367 7.86849 36.7866 7.52949C36.4365 7.19048 35.9617 7.00002 35.4667 7.00002C33.5177 6.9963 31.5926 7.41482 29.8323 8.22493C28.072 9.03504 26.5212 10.2162 25.2933 11.6819C23.9484 13.3062 23.0329 15.2237 22.6263 17.2681C22.2197 19.3124 22.3342 21.422 22.96 23.4139Z" fill="white"/>
    <path d="M42.9333 14H54.1333C54.6284 14 55.1032 13.8156 55.4533 13.4874C55.8033 13.1592 56 12.7141 56 12.25C56 9.0011 54.6233 5.88526 52.1729 3.58794C49.7224 1.29062 46.3988 0 42.9333 0C42.4383 0 41.9635 0.184374 41.6134 0.512563C41.2633 0.840752 41.0667 1.28587 41.0667 1.75V11.3925C41.0667 13.2125 41.9067 14 42.9333 14ZM0 0H26.1333V3.5H0V0ZM0 7H16.8V10.5H0V7Z" fill="white"/>
</svg>
