<svg width="46" height="46" viewBox="0 0 46 46" fill="none" xmlns="http://www.w3.org/2000/svg">
    <path d="M0 42.8857H46V45.9995H0V42.8857ZM6.9 16.418C6.29 16.418 5.70499 16.6641 5.27365 17.102C4.84232 17.54 4.6 18.134 4.6 18.7534V39.7718H13.8V18.7534C13.8 18.134 13.5577 17.54 13.1263 17.102C12.695 16.6641 12.11 16.418 11.5 16.418H6.9ZM20.7 28.8734C20.09 28.8734 19.505 29.1194 19.0737 29.5574C18.6423 29.9954 18.4 30.5894 18.4 31.2088V39.7718H27.6V31.2088C27.6 30.5894 27.3577 29.9954 26.9263 29.5574C26.495 29.1194 25.91 28.8734 25.3 28.8734H20.7ZM34.5 33.5442C33.89 33.5442 33.305 33.7902 32.8737 34.2282C32.4423 34.6661 32.2 35.2602 32.2 35.8795V39.7718H41.4V35.8795C41.4 35.2602 41.1577 34.6661 40.7263 34.2282C40.295 33.7902 39.71 33.5442 39.1 33.5442H34.5ZM18.86 19.6564C19.3697 21.3785 20.2963 22.9435 21.5552 24.2082C22.8142 25.4729 24.3653 26.397 26.0667 26.8961C27.0655 27.1762 28.0971 27.3176 29.1333 27.3165C31.98 27.3165 34.7101 26.1682 36.7229 24.1244C38.7358 22.0805 39.8667 19.3085 39.8667 16.418C39.8667 16.0051 39.7051 15.6091 39.4176 15.3171C39.13 15.0251 38.74 14.8611 38.3333 14.8611H32.9667C32.3567 14.8611 31.7717 14.615 31.3403 14.1771C30.909 13.7391 30.6667 13.1451 30.6667 12.5257V7.07647C30.6667 6.66355 30.5051 6.26754 30.2176 5.97556C29.93 5.68359 29.54 5.51955 29.1333 5.51955C27.5324 5.51634 25.9511 5.8768 24.5051 6.57453C23.0592 7.27226 21.7852 8.28958 20.7767 9.55198C19.6719 10.9509 18.9199 12.6024 18.5859 14.3632C18.2519 16.124 18.346 17.9409 18.86 19.6564Z" fill="white"/>
    <path d="M35.2667 11.96H44.4667C44.8733 11.96 45.2633 11.8025 45.5509 11.5221C45.8385 11.2418 46 10.8615 46 10.465C46 7.68951 44.8692 5.0277 42.8563 3.06513C40.8434 1.10256 38.1133 0 35.2667 0C34.86 0 34.47 0.157508 34.1824 0.437875C33.8949 0.718242 33.7333 1.0985 33.7333 1.495V9.73245C33.7333 11.2873 34.4233 11.96 35.2667 11.96ZM0 0H21.4667V2.99H0V0ZM0 5.98H13.8V8.97H0V5.98Z" fill="white"/>
</svg>
