<svg width="449" height="431" viewBox="0 0 449 431" fill="none" xmlns="http://www.w3.org/2000/svg">
    <path d="M136.78 237.423C145.279 258.096 161.691 275.588 184 285L217.817 204.841L136.78 237.423Z" fill="white"/>
    <path d="M108.124 248.568L217.202 204.669L262.74 96.7273C232.72 84.0622 200.44 84.6736 172.526 95.9116C144.615 107.143 121.056 128.996 108.482 158.802C95.9073 188.608 96.6944 220.732 108.124 248.568Z" fill="url(#paint0_linear_660_718)"/>
    <path d="M261.474 312.995C289.375 301.788 312.92 279.969 325.478 250.2L216.757 204.334L171.279 312.133C201.3 324.798 233.567 324.199 261.474 312.995Z" fill="url(#paint1_linear_660_718)"/>
    <path d="M216.773 203.748L339.241 255.414C341.317 256.29 343.716 255.318 344.531 253.217C357.63 219.444 356.417 183.454 343.688 152.147C330.96 120.839 306.716 94.2143 273.768 79.1648C271.719 78.2286 269.322 79.2067 268.446 81.2829L216.782 203.744C216.781 203.748 216.777 203.749 216.773 203.748V203.748Z" fill="url(#paint2_linear_660_718)"/>
    <path d="M247.454 133.986C208.018 117.348 162.648 135.624 146.119 174.806C129.589 213.988 148.158 259.238 187.594 275.876C227.03 292.513 272.4 274.237 288.93 235.055C305.46 195.873 286.891 150.623 247.454 133.986Z" fill="#E9E9E9"/>
    <path d="M165.653 225.419C176.806 254.266 209.25 268.655 238.118 257.558C266.987 246.46 281.348 214.079 270.195 185.232C259.041 156.385 226.598 141.996 197.729 153.094C168.861 164.191 154.5 196.572 165.653 225.419Z" fill="#FD5128"/>
    <path d="M238.95 141.091C239.57 139.12 241.674 138.016 243.609 138.742C252.469 142.066 260.574 147.171 267.423 153.76C275.174 161.216 281.109 170.372 284.769 180.521C288.429 190.67 289.716 201.538 288.53 212.285C287.344 223.033 283.718 233.371 277.931 242.501C272.145 251.63 264.353 259.305 255.159 264.933C245.965 270.561 235.615 273.99 224.911 274.955C214.206 275.921 203.434 274.396 193.427 270.5C184.573 267.052 176.528 261.83 169.773 255.163C168.312 253.72 168.42 251.362 169.93 249.969C171.452 248.565 173.819 248.678 175.304 250.123C181.276 255.935 188.355 260.496 196.133 263.524C205.077 267.007 214.707 268.369 224.275 267.507C233.843 266.644 243.095 263.578 251.313 258.548C259.531 253.518 266.496 246.657 271.668 238.496C276.84 230.336 280.082 221.095 281.142 211.488C282.202 201.882 281.051 192.167 277.78 183.095C274.508 174.024 269.203 165.839 262.275 159.174C256.249 153.377 249.135 148.865 241.36 145.891C239.43 145.153 238.33 143.062 238.95 141.091Z" fill="white"/>
    <path d="M146.268 348.614C145.183 350.594 142.695 351.322 140.746 350.184C118.446 337.166 99.4941 319.048 85.4249 297.261C70.6134 274.325 61.6707 248.031 59.3891 220.709C57.1074 193.387 61.5572 165.88 72.3443 140.624C83.1314 115.369 99.9228 93.1441 121.231 75.9191C142.54 58.6942 167.707 47.0005 194.505 41.8741C221.302 36.7476 248.902 38.3465 274.861 46.5292C300.819 54.7119 324.334 69.2258 343.323 88.7852C361.375 107.38 374.807 129.99 382.562 154.788C383.231 156.925 381.992 159.175 379.844 159.81L376.825 160.703C374.651 161.346 372.375 160.09 371.694 157.928C364.451 134.949 351.973 113.997 335.23 96.7508C317.535 78.5234 295.621 64.9979 271.431 57.3725C247.24 49.7471 221.52 48.257 196.547 53.0344C171.575 57.8117 148.121 68.709 128.264 84.7609C108.407 100.813 92.7587 121.524 82.7062 145.06C72.6538 168.595 68.507 194.229 70.6333 219.69C72.7595 245.152 81.0932 269.655 94.896 291.029C107.96 311.259 125.542 328.095 146.226 340.217C148.167 341.354 148.89 343.825 147.81 345.798L146.268 348.614Z" fill="white"/>
    <g clip-path="url(#clip0_660_718)">
        <path fill-rule="evenodd" clip-rule="evenodd" d="M242.344 203.695C242.345 205.932 243.895 206.438 244.882 206.106C245.59 205.868 246.916 204.433 247.79 203.916C248.563 205.206 249.568 207.179 251.098 207.18C251.862 207.18 254.225 205.897 252.265 203.046C251.866 202.465 251.485 201.893 251.094 201.309C248.571 197.542 248.456 197.543 244.702 200.682C243.625 201.583 242.343 202.425 242.344 203.695ZM243.906 213.48C243.907 214.986 245.997 216.461 247.358 214.949C247.906 214.34 248.767 211.052 248.766 209.787C248.765 208.165 245.744 205.5 244.487 210.653C244.285 211.479 243.906 212.508 243.906 213.48ZM190.818 224.968C192.989 224.969 192.934 223.497 193.457 220.964C193.822 219.198 193.767 217.142 191.59 217.141C189.211 217.139 188.827 222.792 189.123 223.58C189.406 224.333 189.948 224.967 190.818 224.968ZM236.716 222.607C236.719 226.687 241.55 224.69 243.196 223.332L245.231 221.044C246.215 219.517 245.533 217.375 243.685 217.299C241.624 217.215 242.17 219.841 238.852 220.433C237.704 220.637 236.715 221.169 236.716 222.607ZM197.989 188.444C197.989 189.427 198.876 190.481 199.688 190.693C200.978 191.029 200.481 189.968 203.63 189.97C204.738 189.971 204.285 190.623 205.964 190.624C207.37 190.625 208.33 188.641 207.558 187.33C205.674 184.129 197.986 185.102 197.989 188.444ZM219.203 209.984C218.179 209.984 217.438 211.038 217.182 212.07C216.886 213.264 216.77 214.623 216.531 215.688C216.274 216.833 215.488 217.801 215.582 218.826C215.751 220.662 219.095 223.878 220.682 215.765C220.824 215.038 221.329 212.617 221.298 212.2C221.2 210.867 220.151 209.985 219.203 209.984ZM193.329 200.182C193.33 201.857 195.497 203.486 196.978 201.219C197.338 200.669 198.576 194.313 198.576 193.445C198.575 192.34 197.683 191.271 196.434 191.27C194.714 191.269 194.522 193.141 194.179 194.832C193.869 196.364 193.328 198.551 193.329 200.182ZM190.81 213.009C190.81 214.114 191.702 215.184 192.95 215.185C194.687 215.186 194.901 213.33 195.201 211.617C195.497 209.928 196.057 207.979 196.056 206.272C196.054 203.934 192.828 203.186 192.088 205.965C191.816 206.991 191.602 208.442 191.439 209.367C191.26 210.383 190.809 212.134 190.81 213.009ZM205.791 220.412C205.792 222.607 208.805 224.98 210.85 224.982C212.961 224.983 215.13 225.359 215.128 222.375C215.127 221.527 214.617 220.809 214.03 220.556C212.258 219.794 211.174 221.427 209.619 219.395C207.556 216.701 205.79 219.437 205.791 220.412ZM233.001 193.687C233.002 195.66 236.208 196.567 236.962 193.986L237.437 186.343C237.127 184.245 234.743 183.681 233.734 185.381C233.459 185.844 233.273 187.231 233.217 187.845C233.046 189.738 233 191.747 233.001 193.687ZM227.354 183.463C229.301 183.465 227.99 182.594 231.243 182.596C232.016 182.597 233.375 184.022 234.696 182.546C236.254 180.803 234.706 178.033 231.434 178.03L231.35 178.03C229.565 178.033 226.921 178.175 225.894 179.882C224.77 181.748 226.313 183.463 227.354 183.463ZM232.232 206.949C232.233 208.482 234.86 209.902 236.037 207.509C236.31 206.956 236.647 201.406 236.702 200.405C236.87 197.373 232.782 195.615 232.432 201.089C232.3 203.145 232.23 204.834 232.232 206.949ZM218.423 205.853C218.424 208.465 221.631 209.002 222.375 206.578C222.708 205.494 223.67 200.291 223.669 199.116C223.668 197.725 222.718 197.159 221.529 197.158C219.816 197.157 219.608 199.044 219.31 200.761C219.066 202.168 218.422 204.57 218.423 205.853ZM233.993 221.953C236.943 221.955 235.625 217.777 235.591 217.336C235.443 215.423 237.057 210.866 233.791 210.864C232.635 210.863 232.036 211.675 231.834 212.805C231.671 213.721 231.541 215.563 231.466 216.532C231.382 217.627 231.675 219.272 231.933 220.122C232.257 221.191 232.812 221.952 233.993 221.953ZM222.888 195.202C225.102 195.203 225.136 191.908 225.654 189.168C225.761 188.601 226.189 187.106 226.189 186.507C226.188 185.261 225.287 184.115 224.242 184.114C221.917 184.112 221.824 187.294 221.41 189.639C221.205 190.801 219.722 195.2 222.888 195.202ZM207.344 216.499C208.746 216.5 209.428 214.838 209.484 213.243C209.561 211.074 210.099 207.117 209.146 205.997C207.892 204.522 205.98 205.331 205.654 207.006L205.394 210.844C205.303 212.805 204.656 216.497 207.344 216.499ZM205.579 195.842C205.58 197.617 205.327 201.14 206.041 202.288C206.992 203.815 209.863 203.753 209.861 199.976L209.743 195.601C209.743 195.592 210.374 191.932 207.716 191.93C206.03 191.929 205.578 194.142 205.579 195.842Z" fill="white"/>
    </g>
    <defs>
        <linearGradient id="paint0_linear_660_718" x1="223.874" y1="188.863" x2="115.151" y2="142.995" gradientUnits="userSpaceOnUse">
            <stop stop-color="#D73B16"/>
            <stop offset="1" stop-color="#FF5830"/>
        </linearGradient>
        <linearGradient id="paint1_linear_660_718" x1="302.738" y1="304.098" x2="194.015" y2="258.23" gradientUnits="userSpaceOnUse">
            <stop stop-color="#FC4D23"/>
            <stop offset="1" stop-color="#BC2704"/>
        </linearGradient>
        <linearGradient id="paint2_linear_660_718" x1="369.626" y1="193.886" x2="243.402" y2="140.635" gradientUnits="userSpaceOnUse">
            <stop offset="0.0702" stop-color="#FF5830"/>
            <stop offset="1" stop-color="#F94317"/>
        </linearGradient>
        <clipPath id="clip0_660_718">
            <rect width="65" height="72" fill="white" transform="matrix(1 0.000691709 0.000692657 1 188 169)"/>
        </clipPath>
    </defs>
</svg>
