<svg width="28" height="32" viewBox="0 0 28 32" fill="none" xmlns="http://www.w3.org/2000/svg">
    <path fill-rule="evenodd" clip-rule="evenodd" d="M23.3273 15.4179C23.3273 16.3698 24.0054 16.5847 24.437 16.4432C24.7469 16.3415 25.3274 15.7306 25.7099 15.5104C26.0477 16.0589 26.4869 16.8983 27.1564 16.8983C27.4904 16.8983 28.525 16.3515 27.6683 15.1387C27.4939 14.8916 27.3272 14.6483 27.1564 14.4002C26.0537 12.7978 26.0035 12.7984 24.3601 14.1353C23.8886 14.5189 23.3273 14.8773 23.3273 15.4179ZM24.008 19.5814C24.008 20.2223 24.9217 20.849 25.5175 20.2054C25.7575 19.9463 26.1352 18.5465 26.1352 18.0085C26.1352 17.3183 24.8144 16.185 24.2628 18.3783C24.1745 18.7298 24.008 19.1675 24.008 19.5814ZM0.778339 24.4854C1.72824 24.4854 1.70458 23.8589 1.93418 22.7807C2.0942 22.0293 2.07096 21.1544 1.11868 21.1544C0.0779181 21.1544 -0.0919023 23.5601 0.0374579 23.8955C0.160658 24.2158 0.397959 24.4854 0.778339 24.4854ZM20.8597 23.4674C20.8597 25.2033 22.9736 24.3523 23.6941 23.7738L24.5851 22.7996C25.0164 22.1495 24.7187 21.2381 23.91 21.2066C23.0086 21.1715 23.2466 22.2888 21.7949 22.5414C21.2926 22.6288 20.8597 22.8554 20.8597 23.4674ZM3.92667 8.9412C3.92667 9.35937 4.31419 9.80769 4.66923 9.89751C5.23357 10.0405 5.01657 9.58894 6.39431 9.58894C6.87899 9.58894 6.68047 9.86646 7.41533 9.86646C8.03021 9.86646 8.45077 9.02203 8.11351 8.46425C7.29017 7.1027 3.92667 7.5192 3.92667 8.9412ZM13.2015 18.1011C12.7533 18.1011 12.4289 18.55 12.3166 18.9894C12.1868 19.4974 12.1356 20.0757 12.0307 20.5289C11.9179 21.0162 11.5736 21.4284 11.6145 21.8644C11.688 22.646 13.15 24.0132 13.8467 20.5606C13.9091 20.2512 14.1306 19.2208 14.1173 19.0431C14.0747 18.476 13.6161 18.1011 13.2015 18.1011ZM1.88448 13.9376C1.88448 14.6503 2.83214 15.3428 3.48076 14.3778C3.63812 14.1437 4.18189 11.4385 4.18189 11.0692C4.18189 10.599 3.79227 10.1441 3.24584 10.1441C2.4932 10.1441 2.4085 10.9408 2.25814 11.6605C2.12178 12.3125 1.88448 13.2436 1.88448 13.9376ZM0.778339 19.3964C0.778339 19.8667 1.1681 20.3217 1.71424 20.3217C2.47402 20.3217 2.5681 19.5321 2.70012 18.8029C2.83018 18.0841 3.07574 17.2545 3.07574 16.5281C3.07574 15.5331 1.66426 15.2159 1.33988 16.3987C1.22032 16.8353 1.12652 17.4531 1.05484 17.8466C0.97602 18.2791 0.778339 19.0241 0.778339 19.3964ZM7.33035 22.5423C7.33035 23.4762 8.64775 24.4854 9.54264 24.4854C10.4661 24.4854 11.4147 24.6446 11.4147 23.375C11.4147 23.0139 11.1917 22.7087 10.9349 22.6014C10.1602 22.2773 9.68544 22.9725 9.0056 22.1084C8.10371 20.9626 7.33035 22.1275 7.33035 22.5423ZM19.243 11.1618C19.243 12.0017 20.6454 12.3863 20.9758 11.288L21.186 8.03557C21.0509 7.14289 20.0082 6.90373 19.5661 7.62713C19.4457 7.82427 19.3638 8.41478 19.3393 8.67586C19.2638 9.48162 19.243 10.3362 19.243 11.1618ZM16.7753 6.81315C17.6275 6.81315 17.0541 6.44308 18.4772 6.44308C18.8154 6.44308 19.4096 7.04926 19.9879 6.4204C20.6703 5.67842 19.9935 4.5 18.5623 4.5H18.5253C17.7443 4.50183 16.5879 4.56272 16.1376 5.28947C15.6454 6.08397 16.3202 6.81315 16.7753 6.81315ZM18.9025 16.8058C18.9025 17.4581 20.0512 18.0614 20.5672 17.0429C20.6867 16.8074 20.8356 14.4456 20.8603 14.0198C20.9347 12.7292 19.1467 11.9823 18.9917 14.3119C18.9334 15.1869 18.9025 15.9056 18.9025 16.8058ZM12.8612 16.3431C12.8612 17.4549 14.2639 17.6825 14.5903 16.6505C14.7364 16.1892 15.1586 13.9749 15.1586 13.4749C15.1586 12.8829 14.7429 12.6422 14.2227 12.6422C13.4734 12.6422 13.382 13.4454 13.251 14.1763C13.1437 14.775 12.8612 15.7974 12.8612 16.3431ZM19.6683 23.1899C20.959 23.1899 20.3838 21.4123 20.369 21.2244C20.3049 20.4106 21.0123 18.4712 19.5833 18.4712C19.0775 18.4712 18.8153 18.8167 18.7268 19.2978C18.6551 19.6875 18.5977 20.4713 18.5647 20.8839C18.5274 21.3499 18.6553 22.0495 18.7677 22.4114C18.9089 22.8659 19.1517 23.1899 19.6683 23.1899ZM14.8183 11.8095C15.7868 11.8095 15.8026 10.4072 16.0301 9.24124C16.0772 8.99996 16.2648 8.36333 16.2648 8.10849C16.2648 7.57857 15.8709 7.09082 15.4138 7.09082C14.3964 7.09082 14.3549 8.44462 14.1733 9.4428C14.0833 9.9374 13.433 11.8095 14.8183 11.8095ZM8.01103 20.8769C8.62451 20.8769 8.92327 20.1692 8.94833 19.4905C8.98263 18.5674 9.21924 16.8837 8.80274 16.4074C8.25435 15.78 7.41771 16.1247 7.27449 16.8376L7.15969 18.4709C7.11923 19.3053 6.83531 20.8769 8.01103 20.8769ZM7.24523 12.0871C7.24523 12.8424 7.13337 14.3416 7.44557 14.83C7.86081 15.4792 9.11718 15.4521 9.11718 13.845L9.06692 11.9831C9.06692 11.9796 9.34412 10.4216 8.18113 10.4216C7.44375 10.4216 7.24523 11.3638 7.24523 12.0871Z" fill="white"/>
</svg>
