<svg width="38" height="51" viewBox="0 0 38 51" fill="none" xmlns="http://www.w3.org/2000/svg">
    <path d="M25 12H31L25 7V12Z" fill="white"/>
    <path d="M22.1429 12.7778V5H0V45H5.77929C5.45085 43.5368 5.45461 42.0181 5.79028 40.5565C6.12595 39.0949 6.78494 37.7278 7.71843 36.5565C8.65193 35.3851 9.83602 34.4395 11.183 33.7897C12.53 33.1399 14.0054 32.8025 15.5 32.8025C16.9946 32.8025 18.47 33.1399 19.817 33.7897C21.164 34.4395 22.3481 35.3851 23.2816 36.5565C24.2151 37.7278 24.874 39.0949 25.2097 40.5565C25.5454 42.0181 25.5491 43.5368 25.2207 45H31V13.8889H23.25C22.9564 13.8889 22.6748 13.7718 22.4671 13.5635C22.2595 13.3551 22.1429 13.0725 22.1429 12.7778ZM14.3929 31.6667H5.53571C5.24208 31.6667 4.96048 31.5496 4.75285 31.3412C4.54522 31.1329 4.42857 30.8502 4.42857 30.5556C4.42857 30.2609 4.54522 29.9783 4.75285 29.7699C4.96048 29.5615 5.24208 29.4444 5.53571 29.4444H14.3929C14.6865 29.4444 14.9681 29.5615 15.1757 29.7699C15.3834 29.9783 15.5 30.2609 15.5 30.5556C15.5 30.8502 15.3834 31.1329 15.1757 31.3412C14.9681 31.5496 14.6865 31.6667 14.3929 31.6667ZM25.4643 27.2222H5.53571C5.24208 27.2222 4.96048 27.1052 4.75285 26.8968C4.54522 26.6884 4.42857 26.4058 4.42857 26.1111C4.42857 25.8164 4.54522 25.5338 4.75285 25.3254C4.96048 25.1171 5.24208 25 5.53571 25H25.4643C25.7579 25 26.0395 25.1171 26.2472 25.3254C26.4548 25.5338 26.5714 25.8164 26.5714 26.1111C26.5714 26.4058 26.4548 26.6884 26.2472 26.8968C26.0395 27.1052 25.7579 27.2222 25.4643 27.2222ZM25.4643 22.7778H5.53571C5.24208 22.7778 4.96048 22.6607 4.75285 22.4523C4.54522 22.244 4.42857 21.9614 4.42857 21.6667C4.42857 21.372 4.54522 21.0894 4.75285 20.881C4.96048 20.6726 5.24208 20.5556 5.53571 20.5556H25.4643C25.7579 20.5556 26.0395 20.6726 26.2472 20.881C26.4548 21.0894 26.5714 21.372 26.5714 21.6667C26.5714 21.9614 26.4548 22.244 26.2472 22.4523C26.0395 22.6607 25.7579 22.7778 25.4643 22.7778ZM25.4643 18.3333H7.75C7.45637 18.3333 7.17476 18.2163 6.96713 18.0079C6.7595 17.7995 6.64286 17.5169 6.64286 17.2222C6.64286 16.9275 6.7595 16.6449 6.96713 16.4365C7.17476 16.2282 7.45637 16.1111 7.75 16.1111H25.4643C25.7579 16.1111 26.0395 16.2282 26.2472 16.4365C26.4548 16.6449 26.5714 16.9275 26.5714 17.2222C26.5714 17.5169 26.4548 17.7995 26.2472 18.0079C26.0395 18.2163 25.7579 18.3333 25.4643 18.3333Z" fill="white"/>
    <path d="M30.25 0H7V3.32609H24.5261L33.5714 12.3841V39.913H38V7.76087L30.25 0ZM15.8571 35.4783C14.3243 35.4783 12.826 35.9334 11.5515 36.7862C10.277 37.639 9.28366 38.8511 8.69708 40.2692C8.1105 41.6873 7.95702 43.2477 8.25606 44.7532C8.55509 46.2587 9.29321 47.6415 10.3771 48.7269C11.4609 49.8123 12.8418 50.5514 14.3452 50.8509C15.8485 51.1503 17.4068 50.9966 18.8229 50.4092C20.2391 49.8218 21.4495 48.8271 22.301 47.5508C23.1526 46.2746 23.6071 44.7741 23.6071 43.2391C23.6071 41.1808 22.7906 39.2068 21.3372 37.7514C19.8838 36.2959 17.9126 35.4783 15.8571 35.4783ZM19.9646 41.8089C13.9529 47.8291 15.3479 47.6296 11.7496 44.0263C11.5412 43.8175 11.424 43.5344 11.424 43.2391C11.424 42.9439 11.5412 42.6607 11.7496 42.452C11.9581 42.2432 12.2409 42.1259 12.5357 42.1259C12.8305 42.1259 13.1133 42.2432 13.3218 42.452L14.75 43.8933L18.3925 40.2346C18.4957 40.1312 18.6183 40.0492 18.7532 39.9932C18.888 39.9373 19.0326 39.9085 19.1786 39.9085C19.3246 39.9085 19.4691 39.9373 19.604 39.9932C19.7389 40.0492 19.8614 40.1312 19.9646 40.2346C20.0679 40.3379 20.1498 40.4607 20.2056 40.5957C20.2615 40.7308 20.2902 40.8755 20.2902 41.0217C20.2902 41.1679 20.2615 41.3127 20.2056 41.4478C20.1498 41.5828 20.0679 41.7055 19.9646 41.8089Z" fill="white"/>
</svg>
