<svg width="69" height="93" viewBox="0 0 69 93" fill="none" xmlns="http://www.w3.org/2000/svg">
    <path d="M45 22H55L45 12V22Z" fill="white"/>
    <path d="M40.7143 24.1944V10H0V83H10.6264C10.0225 80.3296 10.0294 77.558 10.6466 74.8906C11.2638 72.2232 12.4755 69.7283 14.192 67.5906C15.9084 65.4529 18.0856 63.7271 20.5623 62.5412C23.0391 61.3553 25.752 60.7395 28.5 60.7395C31.2481 60.7395 33.9609 61.3553 36.4377 62.5412C38.9144 63.7271 41.0916 65.4529 42.808 67.5906C44.5245 69.7283 45.7362 72.2232 46.3534 74.8906C46.9706 77.558 46.9775 80.3296 46.3736 83H57V26.2222H42.75C42.2101 26.2222 41.6923 26.0086 41.3105 25.6283C40.9288 25.248 40.7143 24.7322 40.7143 24.1944ZM26.4643 58.6667H10.1786C9.63867 58.6667 9.12088 58.453 8.73911 58.0727C8.35733 57.6925 8.14286 57.1767 8.14286 56.6389C8.14286 56.1011 8.35733 55.5853 8.73911 55.205C9.12088 54.8247 9.63867 54.6111 10.1786 54.6111H26.4643C27.0042 54.6111 27.522 54.8247 27.9038 55.205C28.2855 55.5853 28.5 56.1011 28.5 56.6389C28.5 57.1767 28.2855 57.6925 27.9038 58.0727C27.522 58.453 27.0042 58.6667 26.4643 58.6667ZM46.8214 50.5556H10.1786C9.63867 50.5556 9.12088 50.3419 8.73911 49.9616C8.35733 49.5814 8.14286 49.0656 8.14286 48.5278C8.14286 47.99 8.35733 47.4742 8.73911 47.0939C9.12088 46.7136 9.63867 46.5 10.1786 46.5H46.8214C47.3613 46.5 47.8791 46.7136 48.2609 47.0939C48.6427 47.4742 48.8571 47.99 48.8571 48.5278C48.8571 49.0656 48.6427 49.5814 48.2609 49.9616C47.8791 50.3419 47.3613 50.5556 46.8214 50.5556ZM46.8214 42.4444H10.1786C9.63867 42.4444 9.12088 42.2308 8.73911 41.8505C8.35733 41.4702 8.14286 40.9545 8.14286 40.4167C8.14286 39.8789 8.35733 39.3631 8.73911 38.9828C9.12088 38.6025 9.63867 38.3889 10.1786 38.3889H46.8214C47.3613 38.3889 47.8791 38.6025 48.2609 38.9828C48.6427 39.3631 48.8571 39.8789 48.8571 40.4167C48.8571 40.9545 48.6427 41.4702 48.2609 41.8505C47.8791 42.2308 47.3613 42.4444 46.8214 42.4444ZM46.8214 34.3333H14.25C13.7101 34.3333 13.1923 34.1197 12.8105 33.7394C12.4288 33.3591 12.2143 32.8434 12.2143 32.3056C12.2143 31.7678 12.4288 31.252 12.8105 30.8717C13.1923 30.4914 13.7101 30.2778 14.25 30.2778H46.8214C47.3613 30.2778 47.8791 30.4914 48.2609 30.8717C48.6427 31.252 48.8571 31.7678 48.8571 32.3056C48.8571 32.8434 48.6427 33.3591 48.2609 33.7394C47.8791 34.1197 47.3613 34.3333 46.8214 34.3333Z" fill="white"/>
    <path d="M54.75 0H12V6.06522H44.2254L60.8571 22.5828V72.7826H69V14.1522L54.75 0ZM28.2857 64.6956C25.4673 64.6956 22.7122 65.5257 20.3688 67.0807C18.0254 68.6358 16.199 70.846 15.1204 73.432C14.0419 76.018 13.7597 78.8635 14.3095 81.6088C14.8594 84.354 16.2165 86.8757 18.2094 88.8549C20.2023 90.8341 22.7414 92.182 25.5057 92.7281C28.2699 93.2741 31.1351 92.9939 33.739 91.9227C36.3428 90.8516 38.5683 89.0377 40.1342 86.7104C41.7 84.383 42.5357 81.6469 42.5357 78.8478C42.5357 75.0944 41.0344 71.4948 38.362 68.8407C35.6896 66.1867 32.0651 64.6956 28.2857 64.6956ZM35.8382 76.2398C24.7843 87.2178 27.3493 86.8539 20.7332 80.2833C20.3499 79.9025 20.1345 79.3862 20.1345 78.8478C20.1345 78.3094 20.3499 77.7931 20.7332 77.4124C21.1165 77.0317 21.6365 76.8178 22.1786 76.8178C22.7207 76.8178 23.2406 77.0317 23.6239 77.4124L26.25 80.0406L32.9475 73.3689C33.1373 73.1804 33.3626 73.0309 33.6106 72.9289C33.8586 72.8268 34.1244 72.7743 34.3929 72.7743C34.6613 72.7743 34.9271 72.8268 35.1751 72.9289C35.4231 73.0309 35.6484 73.1804 35.8382 73.3689C36.028 73.5574 36.1786 73.7812 36.2813 74.0275C36.384 74.2738 36.4369 74.5378 36.4369 74.8043C36.4369 75.0709 36.384 75.3349 36.2813 75.5812C36.1786 75.8275 36.028 76.0513 35.8382 76.2398Z" fill="white"/>
</svg>
