<svg width="45" height="45" viewBox="0 0 45 45" fill="none" xmlns="http://www.w3.org/2000/svg">
    <path d="M37 34.9444V2.05556C37 1.51039 36.7834 0.98755 36.3979 0.602058C36.0125 0.216567 35.4896 0 34.9444 0H2.05556C1.51039 0 0.98755 0.216567 0.602058 0.602058C0.216567 0.98755 0 1.51039 0 2.05556V34.9444C0 35.4896 0.216567 36.0125 0.602058 36.3979C0.98755 36.7834 1.51039 37 2.05556 37H34.9444C35.4896 37 36.0125 36.7834 36.3979 36.3979C36.7834 36.0125 37 35.4896 37 34.9444ZM32.8889 32.8889H4.11111V4.11111H32.8889V32.8889Z" fill="white"/>
    <path d="M42.9444 8H38.8333V12.1111H40.8889V40.8889H12.1111V38.8333H8V42.9444C8 43.4896 8.21657 44.0125 8.60206 44.3979C8.98755 44.7834 9.51039 45 10.0556 45H42.9444C43.4896 45 44.0125 44.7834 44.3979 44.3979C44.7834 44.0125 45 43.4896 45 42.9444V10.0556C45 9.51039 44.7834 8.98755 44.3979 8.60206C44.0125 8.21657 43.4896 8 42.9444 8Z" fill="white"/>
    <path d="M15.9679 27H20.0321V20.0321H27V15.9679H20.0321V9H15.9679V15.9679H9V20.0321H15.9679V27Z" fill="white"/>
</svg>
