<svg width="84" height="81" viewBox="0 0 84 81" fill="none" xmlns="http://www.w3.org/2000/svg">
    <path d="M69 65.1667V3.83333C69 2.81667 68.5961 1.84165 67.8772 1.12276C67.1584 0.403868 66.1833 0 65.1667 0H3.83333C2.81667 0 1.84165 0.403868 1.12276 1.12276C0.403868 1.84165 0 2.81667 0 3.83333V65.1667C0 66.1833 0.403868 67.1584 1.12276 67.8772C1.84165 68.5961 2.81667 69 3.83333 69H65.1667C66.1833 69 67.1584 68.5961 67.8772 67.8772C68.5961 67.1584 69 66.1833 69 65.1667ZM61.3333 61.3333H7.66667V7.66667H61.3333V61.3333Z" fill="white"/>
    <path d="M80.1667 15H72.5V22.6667H76.3333V76.3333H22.6667V72.5H15V80.1667C15 81.1833 15.4039 82.1584 16.1228 82.8772C16.8416 83.5961 17.8167 84 18.8333 84H80.1667C81.1833 84 82.1584 83.5961 82.8772 82.8772C83.5961 82.1584 84 81.1833 84 80.1667V18.8333C84 17.8167 83.5961 16.8416 82.8772 16.1228C82.1584 15.4039 81.1833 15 80.1667 15Z" fill="white"/>
    <path d="M30.1617 51H37.8383V37.8383H51V30.1617H37.8383V17H30.1617V30.1617H17V37.8383H30.1617V51Z" fill="white"/>
</svg>
