<svg width="45" height="38" viewBox="0 0 45 38" fill="none" xmlns="http://www.w3.org/2000/svg">
    <path d="M3 29.8535V37.1826C3 37.6284 3.36538 38 3.82446 38H9.53945C9.98915 38 10.3639 37.6377 10.3639 37.1826V24.2894L6.21351 28.4044C5.33284 29.2683 4.20858 29.7699 3 29.8535ZM13.212 24.1965V37.1826C13.212 37.6284 13.5774 38 14.0365 38H19.7515C20.2012 38 20.5759 37.6377 20.5759 37.1826V29.5377C19.2737 29.5098 18.0557 28.9989 17.1376 28.0886L13.212 24.1965ZM23.4241 28.7295V37.1826C23.4241 37.6284 23.7894 38 24.2485 38H29.9635C30.4132 38 30.788 37.6377 30.788 37.1826V21.5863L24.2392 28.0793C23.9862 28.3301 23.7145 28.5438 23.4241 28.7295ZM40.4472 12L33.6361 18.7531V37.1826C33.6361 37.6284 34.0015 38 34.4606 38H40.1755C40.6252 38 41 37.6377 41 37.1826V12.5109C40.8126 12.353 40.6721 12.2136 40.569 12.1208L40.4472 12Z" fill="white"/>
    <path d="M44.6171 0.427704C44.349 0.145601 43.9422 0 43.4244 0H43.2765C40.6509 0.118301 38.0345 0.245703 35.4089 0.364004C35.0576 0.382204 34.5768 0.400404 34.1978 0.773509C34.0776 0.89181 33.9851 1.02831 33.9112 1.19211C33.5229 2.02022 34.0684 2.55713 34.3272 2.81193L34.9836 3.46714C35.4366 3.92214 35.8989 4.37715 36.3611 4.82305L20.4965 20.4479L13.3685 13.4317C12.9432 13.0131 12.37 12.7765 11.7598 12.7765C11.1496 12.7765 10.5857 13.0131 10.1604 13.4317L0.66565 22.7685C-0.221883 23.6421 -0.221883 25.0526 0.66565 25.9262L1.09093 26.3448C1.5162 26.7634 2.0894 27 2.69958 27C3.30976 27 3.87372 26.7634 4.29899 26.3448L11.7598 19.001L18.8878 26.0172C19.3131 26.4358 19.8863 26.6724 20.4965 26.6724C21.1067 26.6724 21.6706 26.4358 22.1051 26.0172L40.0037 8.39939L42.0284 10.3832C42.2688 10.6198 42.6016 10.9474 43.1101 10.9474C43.3227 10.9474 43.5354 10.8928 43.7573 10.7745C43.9052 10.6926 44.0346 10.6016 44.1456 10.4924C44.5431 10.1011 44.6171 9.60061 44.6356 9.2093C44.7095 7.53488 44.7927 5.86046 44.8759 4.17695L44.9961 1.65622C45.0239 1.12841 44.9037 0.718908 44.6171 0.427704Z" fill="white"/>
</svg>
