<svg width="91" height="77" viewBox="0 0 91 77" fill="none" xmlns="http://www.w3.org/2000/svg">
    <path d="M6 60.707V75.3651C6 76.2569 6.73077 77 7.64892 77H19.0789C19.9783 77 20.7278 76.2754 20.7278 75.3651V49.5788L12.427 57.8089C10.6657 59.5366 8.41716 60.5398 6 60.707ZM26.4241 49.393V75.3651C26.4241 76.2569 27.1548 77 28.073 77H39.503C40.4024 77 41.1519 76.2754 41.1519 75.3651V60.0754C38.5473 60.0196 36.1114 58.9979 34.2751 57.1772L26.4241 49.393ZM46.8481 58.4591V75.3651C46.8481 76.2569 47.5789 77 48.497 77H59.927C60.8264 77 61.5759 76.2754 61.5759 75.3651V44.1726L48.4783 57.1586C47.9724 57.6602 47.429 58.0875 46.8481 58.4591ZM80.8945 25L67.2722 38.5063V75.3651C67.2722 76.2569 68.003 77 68.9211 77H80.3511C81.2505 77 82 76.2754 82 75.3651V26.0218C81.6252 25.706 81.3442 25.4273 81.1381 25.2415L80.8945 25Z" fill="white"/>
    <path d="M90.2256 0.87125C89.6834 0.296595 88.8608 0 87.8139 0H87.5147C82.2051 0.240984 76.9143 0.500506 71.6047 0.74149C70.8942 0.778564 69.922 0.815639 69.1555 1.57567C68.9125 1.81665 68.7255 2.09471 68.576 2.42838C67.7907 4.11527 68.8938 5.20896 69.4173 5.72801L70.7447 7.06269C71.6608 7.98955 72.5955 8.91641 73.5303 9.82474L41.4484 41.6532L27.034 27.361C26.174 26.5083 25.0149 26.0263 23.781 26.0263C22.5471 26.0263 21.4066 26.5083 20.5466 27.361L1.34609 46.3802C-0.448698 48.1598 -0.448698 51.033 1.34609 52.8126L2.2061 53.6653C3.0661 54.518 4.22524 55 5.45915 55C6.69307 55 7.83351 54.518 8.69352 53.6653L23.781 38.7058L38.1954 52.998C39.0554 53.8507 40.2145 54.3327 41.4484 54.3327C42.6824 54.3327 43.8228 53.8507 44.7015 52.998L80.8964 17.1099L84.9908 21.151C85.4769 21.633 86.1499 22.3003 87.1782 22.3003C87.6082 22.3003 88.0382 22.1891 88.4869 21.9481C88.786 21.7813 89.0478 21.5959 89.2721 21.3734C90.076 20.5763 90.2256 19.5568 90.263 18.7597C90.4126 15.3488 90.5808 11.938 90.7491 8.50859L90.9921 3.37378C91.0482 2.29862 90.8052 1.46444 90.2256 0.87125Z" fill="white"/>
</svg>
