<svg width="40" height="39" viewBox="0 0 40 39" fill="none" xmlns="http://www.w3.org/2000/svg">
    <path d="M0 22.1549H7.75004V39H0V22.1549ZM10.7501 13H18.5002V39H10.7501V13ZM21.4998 22.1549H29.2499V39H21.4998V22.1549ZM32.25 13H40V39H32.25V13Z" fill="white"/>
    <path d="M6.60421 15.8913C7.72589 14.7824 7.97516 13.1811 7.47663 11.7026L12.7103 7.14479C13.9566 7.88404 15.3272 7.88404 16.5731 7.14479L21.8067 11.7026C21.1836 13.0579 21.5575 14.7824 22.6792 15.8913C24.1743 17.3694 26.6665 17.3694 28.1621 15.8913C29.2834 14.7824 29.5326 13.1811 29.0341 11.7026L34.2678 7.14479C35.7634 8.00725 37.632 7.76083 38.8783 6.52876C40.3739 5.05068 40.3739 2.58694 38.8783 1.10887C37.3832 -0.369623 34.8909 -0.369623 33.3958 1.10887C32.2741 2.21732 32.0248 3.8186 32.5234 5.2971L27.1651 9.97815C26.0438 9.36211 24.5482 9.36211 23.3023 9.97815L18.0686 5.4203C18.5672 4.06502 18.3179 2.46374 17.1962 1.35487C15.7011 -0.122791 13.2088 -0.122791 11.7133 1.35487C10.7166 2.34053 10.4669 3.94181 10.9659 5.29668L5.73221 9.97815C4.23663 9.1157 2.368 9.23891 1.12168 10.471C-0.373895 11.9491 -0.373895 14.4128 1.12168 15.8913C2.61726 17.3698 5.10905 17.3694 6.60421 15.8913Z" fill="white"/>
</svg>
