<svg width="77" height="66" viewBox="0 0 77 66" fill="none" xmlns="http://www.w3.org/2000/svg">
    <path d="M0 43.6055H14.9188V76H0V43.6055ZM20.694 26H35.6128V76H20.694V26ZM41.3872 43.6055H56.306V76H41.3872V43.6055ZM62.0812 26H77V76H62.0812V26Z" fill="white"/>
    <path d="M12.7131 30.8478C14.8723 28.6953 15.3522 25.5869 14.3925 22.7169L24.4674 13.8693C26.8665 15.3043 29.5048 15.3043 31.9031 13.8693L41.978 22.7169C40.7784 25.3477 41.4981 28.6953 43.6574 30.8478C46.5356 33.717 51.3331 33.717 54.2121 30.8478C56.3705 28.6953 56.8503 25.5869 55.8907 22.7169L65.9655 13.8693C68.8445 15.5435 72.4416 15.0651 74.8408 12.6735C77.7197 9.80426 77.7197 5.02172 74.8408 2.15251C71.9626 -0.717503 67.1651 -0.717503 64.2869 2.15251C62.1277 4.30421 61.6478 7.41258 62.6075 10.2826L52.2927 19.3694C50.1343 18.1735 47.2553 18.1735 44.857 19.3694L34.7821 10.5218C35.7418 7.89092 35.2619 4.78255 33.1027 2.63004C30.2245 -0.23836 25.427 -0.23836 22.548 2.63004C20.6295 4.54338 20.1489 7.65175 21.1093 10.2818L11.0345 19.3694C8.15552 17.6952 4.5584 17.9344 2.15924 20.326C-0.719747 23.1952 -0.719747 27.9778 2.15924 30.8478C5.03823 33.7178 9.83493 33.717 12.7131 30.8478Z" fill="white"/>
</svg>
