<svg width="82" height="78" viewBox="0 0 82 78" fill="none" xmlns="http://www.w3.org/2000/svg">
    <path d="M78.5834 63.5435H69.4847C68.0054 58.594 63.4816 54.9565 58.0834 54.9565C52.6852 54.9565 48.1647 58.594 46.682 63.5435H3.41661C1.53061 63.5435 0 65.0823 0 66.9783C0 68.8744 1.53061 70.4131 3.41661 70.4131H46.6819C48.1612 75.3626 52.685 79 58.0832 79C63.4814 79 68.0019 75.3626 69.4846 70.4131H78.5832C80.4726 70.4131 81.9998 68.8744 81.9998 66.9783C81.9998 65.0823 80.4727 63.5435 78.5834 63.5435ZM58.0834 72.1305C55.2577 72.1305 52.9584 69.819 52.9584 66.9783C52.9584 64.1377 55.2577 61.8262 58.0834 61.8262C60.909 61.8262 63.2084 64.1377 63.2084 66.9783C63.2084 69.819 60.9089 72.1305 58.0834 72.1305ZM78.5834 8.58691H69.4847C68.0019 3.63744 63.4816 0 58.0834 0C52.6852 0 48.1647 3.63744 46.6819 8.58691H3.41661C1.53061 8.58691 0 10.1256 0 12.0216C0 13.9177 1.53061 15.4564 3.41661 15.4564H46.6819C48.1647 20.406 52.685 24.0435 58.0834 24.0435C63.4818 24.0435 68.002 20.406 69.4847 15.4565H78.5834C80.4727 15.4565 82 13.9178 82 12.0218C82 10.1258 80.4727 8.58691 78.5834 8.58691ZM58.0834 17.1738C55.2577 17.1738 52.9584 14.8623 52.9584 12.0216C52.9584 9.18103 55.2577 6.86947 58.0834 6.86947C60.909 6.86947 63.2084 9.18103 63.2084 12.0216C63.2084 14.8623 60.9089 17.1738 58.0834 17.1738ZM78.5834 36.0653H35.3181C33.8353 31.1158 29.315 27.4783 23.9168 27.4783C18.5185 27.4783 13.9981 31.1158 12.5154 36.0653H3.41661C1.53061 36.0653 0 37.604 0 39.5C0 41.396 1.53061 42.9347 3.41661 42.9347H12.5152C13.9981 47.8842 18.5184 51.5216 23.9166 51.5216C29.3148 51.5216 33.8353 47.8842 35.318 42.9347H78.5832C80.4726 42.9347 81.9998 41.396 81.9998 39.5C82 37.604 80.4727 36.0653 78.5834 36.0653ZM23.9166 44.6522C21.091 44.6522 18.7916 42.3406 18.7916 39.5C18.7916 36.6594 21.091 34.3478 23.9166 34.3478C26.7422 34.3478 29.0416 36.6594 29.0416 39.5C29.0416 42.3406 26.7422 44.6522 23.9166 44.6522Z" fill="white"/>
</svg>
