<svg width="43" height="42" viewBox="0 0 43 42" fill="none" xmlns="http://www.w3.org/2000/svg">
    <path d="M41.2084 33.7826H36.4371C35.6614 31.1512 33.2891 29.2174 30.4584 29.2174C27.6276 29.2174 25.2571 31.1512 24.4796 33.7826H1.79164C0.802639 33.7826 0 34.6007 0 35.6087C0 36.6167 0.802639 37.4348 1.79164 37.4348H24.4795C25.2553 40.0662 27.6275 42 30.4583 42C33.2891 42 35.6595 40.0662 36.437 37.4348H41.2083C42.199 37.4348 42.9999 36.6167 42.9999 35.6087C42.9999 34.6007 42.1991 33.7826 41.2084 33.7826ZM30.4584 38.3479C28.9766 38.3479 27.7709 37.1189 27.7709 35.6087C27.7709 34.0985 28.9766 32.8696 30.4584 32.8696C31.9401 32.8696 33.1459 34.0985 33.1459 35.6087C33.1459 37.1189 31.94 38.3479 30.4584 38.3479ZM41.2084 4.56519H36.4371C35.6595 1.93383 33.2891 0 30.4584 0C27.6276 0 25.2571 1.93383 24.4795 4.56519H1.79164C0.802639 4.56519 0 5.38325 0 6.39126C0 7.39926 0.802639 8.21732 1.79164 8.21732H24.4795C25.2571 10.8488 27.6275 12.7826 30.4584 12.7826C33.2892 12.7826 35.6596 10.8488 36.4371 8.2174H41.2084C42.1991 8.2174 43 7.39934 43 6.39134C43 5.38334 42.1991 4.56519 41.2084 4.56519ZM30.4584 9.13039C28.9766 9.13039 27.7709 7.90146 27.7709 6.39126C27.7709 4.88105 28.9766 3.65212 30.4584 3.65212C31.9401 3.65212 33.1459 4.88105 33.1459 6.39126C33.1459 7.90146 31.94 9.13039 30.4584 9.13039ZM41.2084 19.1739H18.5205C17.7429 16.5426 15.3725 14.6087 12.5417 14.6087C9.71095 14.6087 7.34049 16.5426 6.56296 19.1739H1.79164C0.802639 19.1739 0 19.992 0 21C0 22.008 0.802639 22.8261 1.79164 22.8261H6.56287C7.34049 25.4574 9.71086 27.3913 12.5416 27.3913C15.3724 27.3913 17.7429 25.4574 18.5204 22.8261H41.2083C42.199 22.8261 42.9999 22.008 42.9999 21C43 19.992 42.1991 19.1739 41.2084 19.1739ZM12.5416 23.7391C11.0599 23.7391 9.85414 22.5102 9.85414 21C9.85414 19.4898 11.0599 18.2609 12.5416 18.2609C14.0234 18.2609 15.2291 19.4898 15.2291 21C15.2291 22.5102 14.0234 23.7391 12.5416 23.7391Z" fill="white"/>
</svg>
