<svg width="35" height="51" viewBox="0 0 35 51" fill="none" xmlns="http://www.w3.org/2000/svg">
    <path d="M27.6 39C26.7901 40.0625 25.9248 41.0802 25.008 42.0488C27.816 42.7561 29.376 43.7561 29.424 44.2927C29.472 44.8293 25.2 47.3415 18 47.3415C10.8 47.3415 6.696 45.1707 6.6 44.2927C6.504 43.4146 8.208 42.7561 11.016 42.0488C10.091 41.0808 9.2177 40.0631 8.4 39C5.232 40.0732 3 41.8537 3 44.2927C3 48.9024 10.776 51 18 51C25.224 51 33 48.9024 33 44.2927C33 41.8537 30.768 40.0732 27.6 39Z" fill="white"/>
    <path d="M17.5 0C12.8606 0.00620851 8.4131 1.82787 5.13258 5.06555C1.85206 8.30324 0.00629066 12.6927 0 17.2715C0 25.8133 13.4817 44 17.5 44C21.5183 44 35 25.8133 35 17.2715C34.9937 12.6927 33.1479 8.30324 29.8674 5.06555C26.5869 1.82787 22.1394 0.00620851 17.5 0ZM17.5 25.4848C15.8541 25.4848 14.2451 25.0031 12.8765 24.1006C11.508 23.1981 10.4413 21.9154 9.81146 20.4146C9.18159 18.9138 9.01679 17.2624 9.33789 15.6691C9.659 14.0759 10.4516 12.6124 11.6154 11.4638C12.7793 10.3151 14.2621 9.53286 15.8765 9.21595C17.4908 8.89904 19.164 9.06169 20.6847 9.68334C22.2053 10.305 23.5051 11.3577 24.4195 12.7084C25.3339 14.0591 25.822 15.647 25.822 17.2715C25.822 19.4498 24.9452 21.5389 23.3845 23.0792C21.8239 24.6195 19.7071 25.4848 17.5 25.4848Z" fill="white"/>
</svg>
