<svg width="62" height="83" viewBox="0 0 62 83" fill="none" xmlns="http://www.w3.org/2000/svg">
    <path d="M48.46 70C47.0291 71.8593 45.5006 73.6403 43.8808 75.3354C48.8416 76.5732 51.5976 78.3232 51.6824 79.2622C51.7672 80.2012 44.22 84.5976 31.5 84.5976C18.78 84.5976 11.5296 80.7988 11.36 79.2622C11.1904 77.7256 14.2008 76.5732 19.1616 75.3354C17.5273 73.6414 15.9846 71.8604 14.54 70C8.9432 71.878 5 74.9939 5 79.2622C5 87.3293 18.7376 91 31.5 91C44.2624 91 58 87.3293 58 79.2622C58 74.9939 54.0568 71.878 48.46 70Z" fill="white"/>
    <path d="M31 0C22.7817 0.0111471 14.9032 3.28186 9.092 9.09497C3.28078 14.9081 0.0111435 22.7892 0 31.0101C0 46.3467 23.8818 79 31 79C38.1182 79 62 46.3467 62 31.0101C61.9889 22.7892 58.7192 14.9081 52.908 9.09497C47.0968 3.28186 39.2183 0.0111471 31 0ZM31 45.7568C28.0843 45.7568 25.2341 44.8919 22.8099 43.2715C20.3856 41.6511 18.4961 39.348 17.3803 36.6534C16.2645 33.9588 15.9726 30.9938 16.5414 28.1332C17.1102 25.2726 18.5143 22.645 20.5759 20.5827C22.6376 18.5203 25.2644 17.1158 28.124 16.5468C30.9836 15.9778 33.9477 16.2698 36.6415 17.386C39.3352 18.5021 41.6375 20.3922 43.2574 22.8173C44.8772 25.2424 45.7418 28.0935 45.7418 31.0101C45.7418 34.9212 44.1887 38.6721 41.4241 41.4376C38.6594 44.2031 34.9098 45.7568 31 45.7568Z" fill="white"/>
</svg>
