<svg width="43" height="28" viewBox="0 0 43 28" fill="none" xmlns="http://www.w3.org/2000/svg">
    <path d="M27.0277 20.489C27.0592 20.4931 27.0909 20.4953 27.1225 20.4953C27.2278 20.4953 27.3319 20.4729 27.4281 20.43L42.5698 13.6732C42.722 13.6054 42.846 13.4889 42.9213 13.3428C42.9966 13.1968 43.0187 13.0299 42.984 12.8699C42.9491 12.7099 42.8596 12.5663 42.7302 12.4627C42.6008 12.3591 42.4392 12.3016 42.272 12.2998C42.1486 12.2983 29.8886 12.043 24.4482 1.4061C23.9344 0.402284 22.6698 -0.197291 21.5769 0.0592891L8.93838 3.03839C8.32838 3.18232 7.8425 3.5626 7.60596 4.08108C7.37445 4.58798 7.40684 5.17744 7.69415 5.69872C9.88945 9.68696 16.1687 19.11 27.0277 20.489ZM8.94709 4.66761C8.99663 4.55976 9.11858 4.47481 9.28231 4.43699L21.9212 1.45803C21.9859 1.44281 22.0521 1.43526 22.1186 1.43553C22.5247 1.43553 22.9511 1.69424 23.1334 2.05028C27.3507 10.2953 35.3575 12.7262 39.5476 13.4418L27.0099 19.0369C16.9501 17.6493 11.06 8.7846 8.98615 5.01753C8.9377 4.92712 8.89074 4.79264 8.94709 4.66761ZM0 26.4834H26.7207V27.9993H0V26.4834ZM42.2648 21.2923V19.7769L27.1196 26.4834V28L42.2648 21.2923Z" fill="#FF5830"/>
    <path d="M42 19H38.0872L26.8597 24.5249L26.3704 24.5272C19.5817 24.5272 14.1137 23.289 10.0259 21.8346L0 26H26.5995L42 19Z" fill="#FF5830"/>
    <path d="M2.46843 16.9626C5.37405 18.7999 13.5019 23.0723 26.2016 22.9991L41 15.9307C41 15.9307 40.2024 15.935 38.8956 15.8966L26.2498 21.6692L26.0432 21.6423C18.8126 20.7026 13.6489 16.0878 10.406 12L2.5949 15.5391C1.86344 15.8711 1.78924 16.5335 2.46843 16.9626Z" fill="#FF5830"/>
</svg>
