<svg width="33" height="34" viewBox="0 0 33 34" fill="none" xmlns="http://www.w3.org/2000/svg">
    <path d="M0.149084 32.1426L1.85833 33.851C2.05711 34.0497 2.37938 34.0497 2.57791 33.851L7.51184 28.9198L7.59284 31.2679C7.59756 31.403 7.65596 31.5309 7.7551 31.6228C7.85399 31.715 7.98568 31.7639 8.12085 31.7587L10.5104 31.6683C10.7909 31.6578 11.0098 31.4222 10.9997 31.1415L10.7291 23.7587C10.7194 23.4925 10.5057 23.2789 10.2393 23.2692L2.85347 23C2.84701 23 2.84079 23 2.83433 23C2.56076 23.0002 2.33639 23.2163 2.32621 23.4895L2.2375 25.8793C2.23253 26.0144 2.28123 26.1458 2.37317 26.2446C2.4651 26.3435 2.59257 26.4018 2.72774 26.4066L5.08426 26.491L0.149084 31.4234C-0.0496946 31.6221 -0.0496946 31.9442 0.149084 32.1426Z" fill="#FF5830"/>
    <path d="M25.4074 2.73156C25.4026 2.59643 25.3443 2.46876 25.2454 2.37685C25.1463 2.2847 25.0146 2.23602 24.8794 2.24098L22.4898 2.33041C22.209 2.34109 21.9902 2.57681 22.0003 2.85749L22.2699 10.2414C22.2798 10.5077 22.4935 10.7213 22.7598 10.731L30.1443 11H30.1634C30.4369 10.9998 30.6612 10.7837 30.6714 10.5104L30.7616 8.1214C30.7668 7.98652 30.7179 7.85487 30.626 7.75576C30.534 7.6569 30.4064 7.59853 30.2712 7.59381L27.917 7.51011L32.8509 2.57706C33.0497 2.37834 33.0497 2.05643 32.8509 1.85772L31.1422 0.149035C30.9435 -0.0496782 30.6212 -0.0496782 30.4225 0.149035L25.4891 5.08158L25.4074 2.73156Z" fill="#FF5830"/>
    <path d="M32.8509 32.1426L31.1417 33.851C30.9429 34.0497 30.6206 34.0497 30.4221 33.851L25.4882 28.9198L25.4072 31.2679C25.4024 31.403 25.344 31.5309 25.2449 31.6228C25.146 31.715 25.0143 31.7639 24.8792 31.7587L22.4896 31.6683C22.2091 31.6578 21.9902 31.4222 22.0003 31.1415L22.2709 23.7587C22.2806 23.4925 22.4943 23.2789 22.7607 23.2692L30.1465 23C30.153 23 30.1592 23 30.1657 23C30.4392 23.0002 30.6636 23.2163 30.6738 23.4895L30.7625 25.8793C30.7675 26.0144 30.7188 26.1458 30.6268 26.2446C30.5349 26.3435 30.4074 26.4018 30.2723 26.4066L27.9157 26.491L32.8509 31.4234C33.0497 31.6221 33.0497 31.9442 32.8509 32.1426Z" fill="#FF5830"/>
    <path d="M7.59264 2.73156C7.59736 2.59643 7.65574 2.46876 7.75462 2.37685C7.85374 2.2847 7.98541 2.23602 8.12056 2.24098L10.5102 2.33041C10.791 2.34109 11.0098 2.57681 10.9997 2.85749L10.7301 10.2414C10.7202 10.5077 10.5065 10.7213 10.2402 10.731L2.85575 11H2.83662C2.56309 10.9998 2.33876 10.7837 2.32857 10.5104L2.23839 8.1214C2.23317 7.98652 2.28211 7.85487 2.37403 7.75576C2.46595 7.6569 2.59365 7.59853 2.7288 7.59381L5.08296 7.51011L0.14906 2.57706C-0.0496874 2.37834 -0.0496874 2.05643 0.14906 1.85772L1.85779 0.149035C2.05654 -0.0496782 2.37875 -0.0496782 2.5775 0.149035L7.5109 5.08158L7.59264 2.73156Z" fill="#FF5830"/>
</svg>
