<svg width="33" height="32" viewBox="0 0 33 32" fill="none" xmlns="http://www.w3.org/2000/svg">
    <path d="M30.5 23C31.3284 23 32 22.3284 32 21.5C32 20.6716 31.3284 20 30.5 20C29.6716 20 29 20.6716 29 21.5C29 22.3284 29.6716 23 30.5 23Z" fill="#FF5830"/>
    <path d="M27.5 28C28.3284 28 29 27.3284 29 26.5C29 25.6716 28.3284 25 27.5 25C26.6716 25 26 25.6716 26 26.5C26 27.3284 26.6716 28 27.5 28Z" fill="#FF5830"/>
    <path d="M31.5 18C32.3284 18 33 17.3284 33 16.5C33 15.6716 32.3284 15 31.5 15C30.6716 15 30 15.6716 30 16.5C30 17.3284 30.6716 18 31.5 18Z" fill="#FF5830"/>
    <path d="M22.5 31C23.3284 31 24 30.3284 24 29.5C24 28.6716 23.3284 28 22.5 28C21.6716 28 21 28.6716 21 29.5C21 30.3284 21.6716 31 22.5 31Z" fill="#FF5830"/>
    <path d="M16.5005 29.0909C14.3402 29.0934 12.2108 28.5931 10.2912 27.632C8.37163 26.671 6.71794 25.2771 5.46907 23.5677C4.2202 21.8583 3.41264 19.8832 3.11423 17.8083C2.81582 15.7334 3.03527 13.6194 3.75416 11.6438C4.47304 9.66825 5.67036 7.88885 7.24551 6.4551C8.82067 5.02135 10.7277 3.97514 12.8063 3.40435C14.8849 2.83357 17.0744 2.75489 19.1909 3.17492C21.3073 3.59495 23.2889 4.50142 24.9692 5.81818H22.5003C22.1025 5.81818 21.721 5.97143 21.4397 6.24421C21.1584 6.51699 21.0004 6.88696 21.0004 7.27273C21.0004 7.6585 21.1584 8.02847 21.4397 8.30125C21.721 8.57403 22.1025 8.72727 22.5003 8.72727H28.5001C28.8979 8.72727 29.2794 8.57403 29.5607 8.30125C29.842 8.02847 30 7.6585 30 7.27273V1.45455C30 1.06878 29.842 0.698807 29.5607 0.426026C29.2794 0.153246 28.8979 0 28.5001 0C28.1023 0 27.7207 0.153246 27.4394 0.426026C27.1581 0.698807 27.0001 1.06878 27.0001 1.45455V3.68145C24.9604 2.04618 22.5448 0.910939 19.9574 0.371636C17.37 -0.167667 14.6867 -0.0951961 12.1342 0.582927C9.58176 1.26105 7.23508 2.52491 5.29238 4.26774C3.34969 6.01058 1.86806 8.18121 0.972634 10.5963C0.0772062 13.0113 -0.205714 15.5999 0.14777 18.1434C0.501254 20.6868 1.48076 23.1104 3.00355 25.2094C4.52634 27.3084 6.54769 29.0212 8.89686 30.2031C11.246 31.385 13.854 32.0014 16.5005 32C16.8984 32 17.2799 31.8468 17.5612 31.574C17.8425 31.3012 18.0005 30.9312 18.0005 30.5455C18.0005 30.1597 17.8425 29.7897 17.5612 29.5169C17.2799 29.2442 16.8984 29.0909 16.5005 29.0909Z" fill="#FF5830"/>
    <path d="M22.5315 21.5741C22.8315 21.3013 23 20.9314 23 20.5457C23 20.16 22.8315 19.7901 22.5315 19.5174L18.2001 15.5798V7.45457C18.2001 7.0688 18.0316 6.69882 17.7315 6.42604C17.4314 6.15325 17.0244 6 16.6001 6C16.1757 6 15.7687 6.15325 15.4686 6.42604C15.1686 6.69882 15 7.0688 15 7.45457V16.182C15.0001 16.5678 15.1687 16.9377 15.4688 17.2104L20.269 21.5741C20.5691 21.8468 20.976 22 21.4003 22C21.8246 22 22.2315 21.8468 22.5315 21.5741Z" fill="#FF5830"/>
</svg>
