<svg width="33" height="35" viewBox="0 0 33 35" fill="none" xmlns="http://www.w3.org/2000/svg">
    <path d="M31.9846 21.2974L31.2296 20.8571C28.7311 19.3997 28.725 15.6037 31.2296 14.1429L31.9846 13.7026C32.954 13.1366 33.2869 11.8802 32.7274 10.9013L30.2696 6.59873C29.7101 5.61982 28.4659 5.2835 27.4971 5.84814L26.7448 6.28701C24.264 7.73418 20.9875 5.87412 20.9875 2.93535V2.05078C20.9875 0.920117 20.0769 0 18.9579 0H14.0416C12.9226 0 12.012 0.920117 12.012 2.05078V2.93535C12.012 5.8748 8.73416 7.73418 6.25399 6.28701L5.50236 5.84814C4.53086 5.28145 3.29078 5.61709 2.72993 6.59873L0.271413 10.9013C-0.288079 11.8802 0.0454513 13.1366 1.01425 13.7026L1.76993 14.1429C4.26769 15.6003 4.27378 19.3963 1.76993 20.8571L1.01425 21.2974C0.0454513 21.8634 -0.288079 23.1198 0.271413 24.0987L2.72993 28.4013C3.28943 29.3802 4.53289 29.7172 5.50236 29.1519L6.25399 28.713C8.73619 27.2651 12.012 29.13 12.012 32.0646V32.9492C12.012 34.0799 12.9226 35 14.0416 35H18.9579C20.0769 35 20.9875 34.0799 20.9875 32.9492V32.0646C20.9875 29.1259 24.2646 27.2658 26.7448 28.713L27.4971 29.1519C28.4659 29.7172 29.7101 29.3802 30.2696 28.4013L32.7274 24.0987C33.2882 23.1178 32.9561 21.8647 31.9846 21.2974ZM16.4994 26.2924C11.7014 26.2924 7.79784 22.348 7.79784 17.5C7.79784 12.652 11.7014 8.70762 16.4994 8.70762C21.2981 8.70762 25.2016 12.652 25.2016 17.5C25.2016 22.348 21.2981 26.2924 16.4994 26.2924Z" fill="#FF5830"/>
    <path d="M16.4997 11C12.9157 11 10 13.9158 10 17.5C10 21.0842 12.9157 24 16.4997 24C20.0837 24 23 21.0842 23 17.5C23 13.9158 20.0837 11 16.4997 11ZM19.9617 16.7888L15.9072 19.7989C15.5045 20.0975 14.941 20.0481 14.597 19.6816L12.9065 17.8796C12.5328 17.4815 12.5525 16.8554 12.9506 16.4824C13.3487 16.1086 13.9741 16.1284 14.3478 16.5265L15.4359 17.6859L18.7833 15.2011C19.2216 14.8761 19.8411 14.9678 20.1667 15.4061C20.4916 15.8444 20.4 16.4639 19.9617 16.7888Z" fill="#FF5830"/>
</svg>
