<svg width="34" height="31" viewBox="0 0 34 31" fill="none" xmlns="http://www.w3.org/2000/svg">
    <path d="M33.3203 23.3155L21.4087 2.57029C19.4631 -0.856762 14.5431 -0.856762 12.6044 2.57029L0.685813 23.3155C-1.2598 26.7426 1.16172 31 5.08794 31H28.8762C32.8024 31 35.2659 26.7004 33.3203 23.3155ZM16.9996 26.3978C15.9638 26.3978 15.1029 25.5322 15.1029 24.4907C15.1029 23.4492 15.9638 22.5837 16.9996 22.5837C18.0354 22.5837 18.8962 23.4492 18.8542 24.54C18.9032 25.5322 17.9934 26.3978 16.9996 26.3978ZM18.7282 14.0688C18.6442 15.5466 18.5533 17.0174 18.4693 18.4951C18.4273 18.9737 18.4273 19.41 18.4273 19.8814C18.3853 20.6626 17.7764 21.2677 16.9996 21.2677C16.2227 21.2677 15.6208 20.7048 15.5719 19.9237C15.4459 17.6226 15.3129 15.3637 15.1869 13.0625C15.1449 12.4574 15.1029 11.8451 15.054 11.2399C15.054 10.2407 15.6138 9.41734 16.5237 9.15697C17.4335 8.93882 18.3363 9.37512 18.7282 10.2407C18.8612 10.5433 18.9032 10.8459 18.9032 11.1977C18.8612 12.1618 18.7702 13.1188 18.7282 14.0688Z" fill="#FF5830"/>
</svg>
