<svg width="35" height="35" viewBox="0 0 35 35" fill="none" xmlns="http://www.w3.org/2000/svg">
    <path d="M17.5 0C7.8505 0 0 7.8505 0 17.5C0 27.1495 7.8505 35 17.5 35C27.1495 35 35 27.1495 35 17.5C35 7.8505 27.1495 0 17.5 0ZM17.5 31.8182C9.60485 31.8182 3.18182 25.395 3.18182 17.5C3.18182 9.60495 9.60485 3.18182 17.5 3.18182C25.3952 3.18182 31.8182 9.60495 31.8182 17.5C31.8182 25.395 25.395 31.8182 17.5 31.8182Z" fill="#FF5830"/>
    <path d="M24.2192 11.4552L15.0042 20.2476L10.7808 16.2178C10.1448 15.6109 9.11329 15.6108 8.47713 16.2177C7.84096 16.8247 7.84096 17.8087 8.47713 18.4157L13.8523 23.5447C14.1578 23.8362 14.5721 24 15.0041 24H15.0042C15.4362 24 15.8505 23.8362 16.156 23.5448L26.5229 13.6534C27.159 13.0464 27.159 12.0623 26.5229 11.4553C25.8867 10.8483 24.8554 10.8482 24.2192 11.4552Z" fill="#FF5830"/>
</svg>
