<svg width="33" height="32" viewBox="0 0 33 32" fill="none" xmlns="http://www.w3.org/2000/svg">
    <path d="M0 29.8462H33V32H0V29.8462ZM4.95 11.5385C4.51239 11.5385 4.09271 11.7087 3.78327 12.0116C3.47384 12.3146 3.3 12.7254 3.3 13.1539V27.6923H9.9V13.1539C9.9 12.7254 9.72616 12.3146 9.41673 12.0116C9.10729 11.7087 8.68761 11.5385 8.25 11.5385H4.95ZM14.85 20.1539C14.4124 20.1539 13.9927 20.324 13.6833 20.627C13.3738 20.9299 13.2 21.3408 13.2 21.7692V27.6923H19.8V21.7692C19.8 21.3408 19.6262 20.9299 19.3167 20.627C19.0073 20.324 18.5876 20.1539 18.15 20.1539H14.85ZM24.75 23.3846C24.3124 23.3846 23.8927 23.5548 23.5833 23.8578C23.2738 24.1607 23.1 24.5716 23.1 25V27.6923H29.7V25C29.7 24.5716 29.5262 24.1607 29.2167 23.8578C28.9073 23.5548 28.4876 23.3846 28.05 23.3846H24.75ZM13.53 13.7785C13.8956 14.9697 14.5604 16.0522 15.4635 16.927C16.3667 17.8018 17.4794 18.441 18.7 18.7862C19.4165 18.9799 20.1566 19.0777 20.9 19.0769C22.9422 19.0769 24.9007 18.2827 26.3447 16.869C27.7888 15.4552 28.6 13.5378 28.6 11.5385C28.6 11.2529 28.4841 10.9789 28.2778 10.777C28.0715 10.575 27.7917 10.4616 27.5 10.4616H23.65C23.2124 10.4616 22.7927 10.2914 22.4833 9.98842C22.1738 9.68547 22 9.27459 22 8.84617V5.07694C22 4.79132 21.8841 4.5174 21.6778 4.31544C21.4715 4.11348 21.1917 4.00001 20.9 4.00001C19.7515 3.99779 18.6171 4.24713 17.5798 4.72974C16.5424 5.21236 15.6285 5.91604 14.905 6.78924C14.1124 7.75688 13.573 8.8992 13.3333 10.1171C13.0937 11.3351 13.1612 12.5919 13.53 13.7785Z" fill="#FF5830"/>
    <path d="M25.3 9H31.9C32.1917 9 32.4715 8.88147 32.6778 8.6705C32.8841 8.45952 33 8.17337 33 7.875C33 5.78642 32.1888 3.78338 30.7447 2.30653C29.3007 0.829685 27.3422 0 25.3 0C25.0083 0 24.7285 0.118526 24.5222 0.329505C24.3159 0.540483 24.2 0.826631 24.2 1.125V7.32375C24.2 8.49375 24.695 9 25.3 9ZM0 0H15.4V2.25H0V0ZM0 4.5H9.9V6.75H0V4.5Z" fill="#FF5830"/>
</svg>
